<svg width="698" height="763" viewBox="0 0 698 763" fill="none" xmlns="http://www.w3.org/2000/svg">
<path d="M698 210.2C697.2 209 696.3 207.8 695.4 206.6C696.3 206.1 697.2 205.6 698 205V113.7C690.5 101.8 675.1 97.0001 661.9 103.1C650.6 108.4 644.4 120.1 645.6 131.9C643.5 131.4 641.3 131.5 639.2 132.5C634.4 134.7 632.4 140.4 634.6 145.1C635.1 146.2 635.8 147.2 636.7 148C634.7 148.2 632.6 148.8 630.7 149.7C624 152.8 619.9 159.3 619.4 166.2C618.5 166.5 617.6 166.8 616.7 167.2C609 170.8 604.8 178.7 605.5 186.7C598.5 181.4 588.9 180.1 580.4 184C575.8 186.1 572.2 189.5 569.8 193.5C563.4 182.3 550.4 176.9 538.2 180C538.1 179.7 538 179.4 537.8 179C535.6 174.2 529.9 172.2 525.2 174.4C524.5 174.7 523.9 175.1 523.3 175.6C516.6 166.8 505.2 162.7 494.4 165.2L425.7 85L414.8 90.1001L433 192C421.8 198.1 416.3 210.9 418.9 223C418.2 223.1 417.5 223.4 416.8 223.7C412 225.9 410 231.6 412.2 236.3C412.3 236.6 412.5 236.9 412.7 237.2C402.5 244.6 398.2 258 402.7 270.1C398.1 269.4 393.2 270 388.6 272.1C380.1 276 374.9 284.3 374.5 293C368.9 287.3 360.1 285.4 352.4 288.9C351.5 289.3 350.7 289.8 349.9 290.3C344.3 286.2 336.8 285.1 330 288.3C328 289.2 326.3 290.4 324.8 291.8C324.7 290.6 324.5 289.5 323.9 288.3C321.7 283.5 316 281.5 311.3 283.7C309.2 284.7 307.6 286.3 306.7 288.2C298.5 279.7 285.5 276.9 274.2 282.1C259.9 288.7 253.7 305.7 260.4 320C263.3 326.2 268.1 330.8 273.7 333.6C257.8 341.8 246.9 358.4 246.9 377.6C246.9 388.1 250.2 397.9 255.8 405.9C239.3 420.1 228.9 441.1 228.9 464.6C228.9 482.5 235 499 245.2 512.1C244.9 512.1 244.7 512.1 244.4 512.1C220.4 512.1 200.9 531.6 200.9 555.6C200.9 563.5 203 570.8 206.6 577.2C206 577.2 205.5 577.1 204.9 577.1C191.6 577.1 180.9 587.8 180.9 601.1C180.9 614.4 191.6 625.1 204.9 625.1C218.2 625.1 228.9 614.4 228.9 601.1C228.9 599.4 228.7 597.7 228.4 596C233.4 598 238.8 599.1 244.4 599.1C268.4 599.1 287.9 579.6 287.9 555.6C287.9 549.7 286.7 544.1 284.6 539C291.5 541 298.8 542.1 306.4 542.1C349.2 542.1 383.9 507.4 383.9 464.6C383.9 448 378.7 432.6 369.8 420C374 417.2 377.9 413.9 381.4 410.2C399.1 420.4 421.4 422.2 441.4 412.9C462.5 403.1 475.8 383.4 478.5 362C499.7 368.9 523.6 368.2 545.4 358C573.4 345 591.7 319.6 596.9 291.4C615.6 311.4 645.6 318.1 671.7 305.9C682.7 300.8 691.6 293 697.9 283.7V210.2H698Z" fill="url(#paint0_linear_20_23)"/>
<path d="M439.1 92.3999L411 105.5L411.1 96.1001L431.9 86.3999L439.1 92.3999Z" fill="#808080"/>
<path d="M397.5 85.8L393.6 91C389 97 388.9 105.3 393.4 111.4L410.5 134.9L407.6 95.3999L397.5 85.8Z" fill="#F15A24"/>
<path d="M432.9 69.3999L439.4 69.7C446.9 70.1 453.3 75.4 455.2 82.7L462.2 110.9L433.9 83.2L432.9 69.3999Z" fill="#F15A24"/>
<path d="M431.3 51.8L442.1 85.5L404 103.2L385.2 73.2C382.2 68.4 379.9 63.2999 378.3 57.8999L375.4 48C373.8 42.4 373 36.7 373 31C373 25.3 373.8 19.5 375.5 14L379.5 0.5L392.4 6.19995C397.7 8.49995 402.6 11.6 407 15.3C411.4 19 415.2 23.3 418.4 28.1L424.1 36.7C427.1 41.4 429.6 46.5 431.3 51.8Z" fill="#CCCCCC"/>
<path d="M405.5 67.6001C412.127 67.6001 417.5 62.2275 417.5 55.6001C417.5 48.9727 412.127 43.6 405.5 43.6C398.873 43.6 393.5 48.9727 393.5 55.6001C393.5 62.2275 398.873 67.6001 405.5 67.6001Z" fill="#3A1672"/>
<path d="M406.9 15.3L373 31.1C373 25.4 373.8 19.6 375.5 14.1L379.5 0.599976L392.4 6.30005C397.6 8.60005 402.5 11.6 406.9 15.3Z" fill="#C1272D"/>
<mask id="mask0_20_23" style="mask-type:luminance" maskUnits="userSpaceOnUse" x="373" y="0" width="34" height="32">
<path d="M406.9 15.3L373 31.1C373 25.4 373.8 19.6 375.5 14.1L379.5 0.599976L392.4 6.30005C397.6 8.60005 402.5 11.6 406.9 15.3Z" fill="white"/>
</mask>
<g mask="url(#mask0_20_23)">
<path d="M383.2 -0.300042C382.3 2.49996 380.7 4.90003 379.3 7.40003C377.9 10 376.6 12.7 375.6 15.5C373.4 21.1 371.9 27 370.4 32.9C371.4 32.9 372.3 32.9 373.3 32.9C372.7 29.9 373.5 27 374.3 24.1C375 21.3 375.8 18.6001 376.8 15.8001C378.7 10.2001 381.6 5.09998 384.6 0.0999825C385.3 -1.10002 384.2 -2.29997 382.9 -2.09997C380.9 -1.69997 379.7 -4.22001e-05 378.7 1.69996C377.4 3.99996 376 6.29998 374.7 8.59998C375.6 9.09998 376.4 9.59998 377.3 10.1C378.5 7.79998 379.6 5.40001 380.3 3.00001C380.6 2.00001 380.7 0.900031 381.7 0.400031C382.3 0.100031 383.8 -0.599993 384.4 6.91414e-06C385.9 1.30001 388 -0.899969 386.5 -2.09997C384.4 -3.99997 380.4 -3.10002 378.7 -0.900017C377.7 0.399982 377.5 2.09998 377 3.59998C376.4 5.39998 375.6 7.09996 374.7 8.69996C373.8 10.4 376.3 11.9 377.3 10.2C378.4 8.29996 379.5 6.49998 380.6 4.59998C381.3 3.29998 382.1 1.30001 383.7 1.00001C383.1 0.300007 382.6 -0.499944 382 -1.19994C378.9 4.20006 375.8 9.69996 373.8 15.7C372.8 18.6 372 21.5 371.2 24.4C370.4 27.5 369.8 30.7 370.5 33.9C370.8 35.4 373 35.3 373.4 33.9C374.9 28.1 376.4 22.2 378.6 16.5C379.7 13.8 380.9 11.1 382.4 8.50001C383.9 5.90001 385.4 3.39998 386.3 0.599983C386.6 -1.40002 383.7 -2.20004 383.2 -0.300042Z" fill="#D8444F"/>
</g>
<path d="M413.2 49L408.9 66C409 66 419.6 59.6 413.2 49Z" fill="#442187"/>
<path d="M1.20007 763C1.00007 760.7 0.800049 758.3 0.800049 755.9C0.800049 718.3 31.3 687.9 68.8 687.9C81.5 687.9 93.4 691.4 103.6 697.5C103.3 694.6 103.1 691.6 103.1 688.6C103.1 643.2 139.9 606.3 185.4 606.3C197.8 606.3 209.5 609.1 220.1 614C219.9 611.5 219.8 608.9 219.8 606.3C219.8 554.1 262.2 511.7 314.4 511.7C321.7 511.7 328.7 512.5 335.5 514.1C334.4 507.2 333.8 500.1 333.8 492.9C333.8 422.5 387.5 364.7 456.1 358.1C455.8 354.3 455.6 350.4 455.6 346.5C455.6 271.7 516.2 211.1 591 211.1C634.5 211.1 673.1 231.6 697.9 263.4V763H1.20007Z" fill="#280A54"/>
<path d="M615.7 545L613.9 550C612.4 554 610.1 557.7 607.1 560.7L605.3 562.5C609.9 566.2 613.5 571.1 615.7 576.7L616 577.4L616.5 575.8C618 571.3 620.7 567.2 624.2 564L626.4 562L623.6 559.3C621.3 557.1 619.6 554.5 618.4 551.5L615.7 545Z" fill="white"/>
<path d="M323.5 619C325.433 619 327 617.433 327 615.5C327 613.567 325.433 612 323.5 612C321.567 612 320 613.567 320 615.5C320 617.433 321.567 619 323.5 619Z" fill="white"/>
<path d="M619.5 434C621.433 434 623 432.433 623 430.5C623 428.567 621.433 427 619.5 427C617.567 427 616 428.567 616 430.5C616 432.433 617.567 434 619.5 434Z" fill="white"/>
<path d="M202.5 705C203.328 705 204 704.328 204 703.5C204 702.671 203.328 702 202.5 702C201.672 702 201 702.671 201 703.5C201 704.328 201.672 705 202.5 705Z" fill="white"/>
<path d="M484.5 477C485.328 477 486 476.328 486 475.5C486 474.671 485.328 474 484.5 474C483.672 474 483 474.671 483 475.5C483 476.328 483.672 477 484.5 477Z" fill="white"/>
<path d="M546.5 333C549.538 333 552 330.537 552 327.5C552 324.462 549.538 322 546.5 322C543.462 322 541 324.462 541 327.5C541 330.537 543.462 333 546.5 333Z" fill="white"/>
<path d="M435 581C437.209 581 439 579.209 439 577C439 574.791 437.209 573 435 573C432.791 573 431 574.791 431 577C431 579.209 432.791 581 435 581Z" fill="white"/>
<defs>
<linearGradient id="paint0_linear_20_23" x1="476.973" y1="444.117" x2="297.739" y2="41.2235" gradientUnits="userSpaceOnUse">
<stop stop-color="#FBB03B"/>
<stop offset="0.4788" stop-color="#ED1C24"/>
<stop offset="1" stop-color="#FF0000"/>
</linearGradient>
</defs>
</svg>
