<svg width="217" height="298" viewBox="0 0 217 298" fill="none" xmlns="http://www.w3.org/2000/svg">
<path d="M84.6 297.4C83.9 297.4 83.2 297.3 82.6 297.2C81.9 297.3 81.3 297.4 80.6 297.4H31.4C24.7 297.4 19.3 292 19.3 285.3V278.8C19.3 278.4 19.3 277.9 19.4 277.5C20.5 267.3 27.5 258.6 37.2 255.3C39.9 254.4 42.8 253.9 45.6 253.9C47.6 253.9 49.5 254.1 51.4 254.5C52.1 252.8 53.1 251.3 54.3 249.9V204.8C51.8 203.8 49.4 202.7 47.1 201.5C45.6 203.9 43.5 205.8 41 207C39.4 207.8 37.7 208.2 36 208.3C33.7 209.7 30.9 210.4 28.2 210.4C28.1 210.4 27.9 210.4 27.8 210.4C26.8 210.9 25.7 211.4 24.5 211.7C23.2 212 21.9 212.2 20.5 212.2C14.9 212.2 11.2 209.3 9.9 208C8.2 206.4 7 204.4 6.4 202.1L3.80001 191.8C3.20001 189.3 3.20001 186.8 3.80001 184.4C3.70001 182.8 3.9 181.1 4.5 179.4L0.700001 159.2C-0.499999 152.6 1.4 145.7 5.9 140.7L21.7 123.4V92C21.7 78.4 25.8 65 33.4 53.9C33.6 52.8 33.9 51.8 34.3 50.8C38.9 39.7 49 32.3 60.5 31.3C64.7 29.4 69.1 28 73.5 27L69.4 17.3C66.9 11.3 69.6 4.30002 75.6 1.60002C77.2 0.900021 78.9 0.500015 80.6 0.500015C85.1 0.500015 89.4 3.00002 91.5 7.30002L97.4 19.4L97.6 19.2C100 16.1 103.5 14.5 107.2 14.5C109.6 14.5 112 15.2 114.1 16.7C119.3 20.3 120.9 27.4 117.6 32.9C139.4 44.1 153.5 66.9 153.5 92.3V115.5L165.4 128.5L166.7 126.9C166.7 126.2 166.8 125.6 166.9 124.9C166 123.2 165.2 121.3 164.6 119.2C162.8 111.8 164 103.1 170.5 98.6L170 92.3C169.9 91.3 170 90.4 170.1 89.4C171.3 81.7 176.1 76.3 182.7 75.3C183.4 75.2 184 75.2 184.7 75.2C187.8 75.2 190.7 76.2 193.1 78.1C194.9 77.3 196.8 76.8 198.8 76.8C199.8 76.8 200.7 76.9 201.6 77.1C209.8 78.9 214.3 87.6 212.5 98.1C212.5 98.4 212.4 98.7 212.3 98.9L211.2 103.4C217.2 108.9 216.2 116.5 215.7 120.3C215.2 124.3 213.9 128.2 211.9 131.8C211.2 133.1 210.2 134.3 209 135.3L203.2 140.1C201.5 143.1 198.7 145.2 195.3 146.1C193.1 148.9 190.2 152.6 187.1 156.2C176.7 168.3 170.3 172.8 163.4 172.8C160.4 172.8 157.3 172 153.3 169.4C152.6 178.3 148.1 186.7 141 192.2C134.3 197.4 124.1 203.7 110.9 207.6V250.9C111.8 252 112.6 253.3 113.1 254.7C115.2 254.2 117.4 253.9 119.6 253.9C122.5 253.9 125.3 254.4 128 255.3C137.7 258.6 144.7 267.3 145.8 277.5C145.9 277.9 145.9 278.4 145.9 278.8V285.3C145.9 292 140.5 297.4 133.8 297.4H84.6Z" fill="white"/>
<path d="M202.8 112.3C201.4 111.2 198.7 111.6 196.3 113.1L200.3 96.2C201 92.2 200 89.2 198.7 88.9C197.6 88.6 195.9 90.4 194.7 92.9L189.9 106.6L188.3 92.9C187.8 89.2 185.7 87 184.3 87.3C183.2 87.5 182.2 89.2 181.9 91.3L183.5 110.7C181.7 108.8 179.4 107.6 177.9 108.3C175.5 109.3 175.7 113.9 176.3 116.4C177.4 120.7 180.9 123 181.9 123.7L181.4 125C181.2 125.6 181.1 126.1 181.2 126.7C179.9 126.5 179 126.7 178.7 127.2C178.4 127.8 178.9 128.7 180 129.7L165.7 147.1L141.2 120.3V92.4C141.2 69.2 126.7 48.1 104.7 40.7C103 40.1 101.2 39.6 99.4 39.2L107 26.8L97.9 38.6L98.6 39.1C96.3 38.6 93.9 38.3 91.5 38.1L92.6 37.6L80.6 12.9L91.1 38C89.4 37.9 87.6 37.8 85.8 37.9C77.9 38.1 70.3 40.1 63.4 43.5C63.3 43.5 63.3 43.5 63.2 43.5C55.4 43.5 48.4 48.5 45.4 55.7C45.1 56.5 45.1 57.3 45.5 58C37.9 67.6 33.7 79.6 33.7 92.2V128.5L14.8 149.2C12.8 151.4 12 154.4 12.5 157.3L17.2 182.2C16.2 182.9 15.7 183.6 15.9 184.2C16.1 184.9 17 185.3 18.3 185.4L17.4 185.7C15.9 186.2 15.1 187.7 15.5 189.2L18.1 199.5C18.2 199.6 19.5 200.8 21.3 200.3C23.2 199.8 23.7 198 23.7 197.9C23.7 197 24.8 196.6 25.4 197.2L26.1 197.9C27.3 198.8 29 198.8 30.1 197.9C31.3 196.9 31.6 195.2 30.9 193.9C32 196.2 34.3 197 35.7 196.3C36.9 195.7 37.3 194.1 37.3 193.9C37.3 189.8 35.7 185.8 32.7 182.9C31.7 181.9 30.3 181.5 28.9 181.7C29 181.4 29.1 181.2 29 180.9C28.8 180.3 28 179.9 26.7 179.7L22.2 161.6C21.6 159.1 22.3 156.4 24.1 154.6L33.5 145.2V168.5C33.5 174.8 36.5 180.7 41.6 184.4C47.3 188.6 55.7 193.4 66.3 196.4V257.6H64.9C63.5 257.6 62.3 258.8 62.3 260.2V260.6C62.3 261.5 62.8 262.3 63.5 262.8L55.4 270.1C51.5 266.4 45.9 265.2 40.9 266.9C35.6 268.7 31.8 273.4 31.2 279V281.4V285.4H80.4V281.4V263.1C81.3 262.7 82 261.8 82 260.7V260.3C82 259.4 81.5 258.6 80.8 258.1V199C81.8 199.1 82.9 199.1 83.9 199.2H84V258.1C83.3 258.6 82.8 259.4 82.8 260.3V260.7C82.8 261.8 83.5 262.7 84.4 263.1V281.4V285.4H133.6V281.4V279C133 273.4 129.2 268.7 123.9 266.9C118.9 265.2 113.3 266.4 109.4 270.1L101.3 262.8H100.5C101.2 262.3 101.7 261.5 101.7 260.6V260.2C101.7 258.8 100.5 257.6 99.1 257.6H98.5V198C114.1 195.4 126 188.2 133.3 182.6C138.1 178.9 141 173.1 141 167V139.8C147.3 147.6 158.6 160.6 163.1 160.6C169.3 160.6 187.2 136.4 188.8 134.2C190.7 134.7 192.1 134.6 192.4 133.9C192.5 133.7 192.5 133.3 192.3 133L201 125.9C201.9 124.4 203 121.9 203.4 118.6C204 116 204.3 113.5 202.8 112.3Z" fill="white"/>
<path d="M95.9 50.4C94.5 50.4 93 50.1 91.6 49.6L90.1 49C87 47.8 84.6 45.5 83.3 42.5C82 39.5 82 36.1 83.2 33.1L93.7 7.70001C95.6 3.00001 100.1 0.200012 104.9 0.200012C106.3 0.200012 107.8 0.500015 109.2 1.00002C115.3 3.30002 118.5 10.1 116.4 16.3L107.5 42.3C106.4 45.4 104.2 47.9 101.2 49.3C99.4 50 97.6 50.4 95.9 50.4Z" fill="white"/>
<path d="M104.8 12.3L94.4 37.7L95.9 38.3L104.8 12.3Z" fill="white"/>
<path d="M133.8 285.3V278.8C133.2 273.2 129.4 268.5 124.1 266.7C119.1 265 113.5 266.2 109.6 269.9L101.5 262.6H84.6V285.2H133.8V285.3Z" fill="#662D91"/>
<path d="M133.8 286.1H84.6C84.2 286.1 83.8 285.7 83.8 285.3V262.7C83.8 262.3 84.2 261.9 84.6 261.9H101.5C101.7 261.9 101.9 262 102 262.1L109.5 268.9C113.6 265.4 119.2 264.3 124.3 266C129.9 267.9 133.9 272.9 134.5 278.8V278.9V285.4C134.6 285.7 134.3 286.1 133.8 286.1ZM85.4 284.5H133V278.9C132.4 273.7 128.8 269.2 123.9 267.5C119.1 265.9 113.9 267.1 110.2 270.5C109.9 270.8 109.4 270.8 109.1 270.5L101.3 263.4H85.5V284.5H85.4Z" fill="black"/>
<path d="M109.2 282.1C108.9 282.1 108.7 282 108.5 281.8L107.9 281C105.4 277.4 105.9 272.6 109 269.5C109.3 269.2 109.8 269.2 110.1 269.5C110.4 269.8 110.4 270.3 110.1 270.6C107.6 273.1 107.2 277.1 109.2 280.1L109.8 280.9C110.1 281.3 110 281.8 109.6 282C109.6 282 109.4 282.1 109.2 282.1Z" fill="black"/>
<path d="M107.2 276.5C107 276.5 106.8 276.4 106.7 276.3L94.6 266.5C94.4 266.3 94.3 266 94.3 265.7C94.3 265.4 94.5 265.2 94.8 265.1L101.9 262.5C102.3 262.3 102.8 262.6 102.9 263C103.1 263.4 102.8 263.9 102.4 264L96.6 266.1L107.6 275C107.9 275.3 108 275.8 107.7 276.1C107.7 276.4 107.5 276.5 107.2 276.5Z" fill="black"/>
<path d="M99.6 270.3C99.3 270.3 99.1 270.2 98.9 269.9C98.7 269.5 98.8 269 99.1 268.8L104.6 265.1C105 264.9 105.5 265 105.7 265.3C105.9 265.7 105.8 266.2 105.5 266.4L100 270.1C99.9 270.3 99.7 270.3 99.6 270.3Z" fill="black"/>
<path d="M102.3 272.6C102.1 272.6 101.8 272.5 101.7 272.3C101.4 272 101.5 271.4 101.8 271.2L106.7 267.2C107 266.9 107.6 267 107.8 267.3C108.1 267.6 108 268.2 107.7 268.4L102.8 272.4C102.7 272.5 102.5 272.6 102.3 272.6Z" fill="black"/>
<path d="M84.6 275.8V281.2H89.4C89.5 280.9 90.1 279.4 89.4 278C88.7 276.4 86.7 275.5 84.6 275.8Z" fill="white"/>
<path d="M89.5 282.1H84.7C84.3 282.1 83.9 281.7 83.9 281.3V275.9C83.9 275.5 84.2 275.2 84.6 275.1C87 274.7 89.4 275.8 90.3 277.8C91.1 279.4 90.6 281 90.3 281.7C90.1 281.9 89.8 282.1 89.5 282.1ZM85.4 280.4H88.8C88.9 279.9 89 279.1 88.7 278.3C88.2 277.2 86.8 276.4 85.4 276.5V280.4Z" fill="black"/>
<path d="M133.8 281.3H84.6V285.3H133.8V281.3Z" fill="white"/>
<path d="M134.6 286.1H83.8V280.5H134.6V286.1ZM85.4 284.5H133V282.1H85.4V284.5Z" fill="black"/>
<path d="M104.7 40.5C98.7 38.5 92.3 37.5 85.8 37.7C77.7 37.9 69.9 40 62.9 43.6C44.8 52.8 33.7 71.8 33.7 92.1V168.4C33.7 174.7 36.7 180.6 41.8 184.3C47.5 188.5 55.9 193.3 66.5 196.3V260.8H81V198.9C82 199 83.1 199 84.1 199.1H84.2V260.8H98.7V198C114.3 195.4 126.2 188.2 133.5 182.6C138.3 178.9 141.2 173.1 141.2 167V92.2C141.2 69 126.7 48 104.7 40.5Z" fill="#D4145A"/>
<path d="M99.6 261.5H83.5V199.7C83 199.7 82.5 199.6 81.9 199.6V261.5H65.8V196.8C57.2 194.3 48.8 190.2 41.5 184.9C36.2 181.1 33 174.9 33 168.3V92C33 70.9 44.4 52.1 62.6 42.8C69.9 39.1 77.7 37.1 85.8 36.8C92.3 36.6 98.8 37.6 105 39.7C127.2 47.2 142.1 68.3 142.1 92.2V167C142.1 173.3 139.1 179.4 134.1 183.2C126.9 188.8 115 195.9 99.6 198.7V261.5V261.5ZM85 259.9H97.9V197.3L98.6 197.2C114 194.6 125.8 187.5 133 181.9C137.6 178.4 140.4 172.8 140.4 167V92.2C140.4 69 126 48.5 104.4 41.2C98.4 39.2 92.1 38.2 85.8 38.4C77.9 38.6 70.3 40.6 63.2 44.2C45.5 53.2 34.4 71.5 34.4 92V168.3C34.4 174.3 37.3 180 42.2 183.6C47.4 187.3 55.8 192.4 66.6 195.5L67.2 195.7V260H80.1V198L81 198.1C82.2 198.2 83.2 198.2 84.1 198.3H84.9L85 199.1V259.9V259.9Z" fill="black"/>
<path d="M181.3 124.9L181.8 123.6C180.7 122.9 177.2 120.6 176.2 116.3C175.6 113.8 175.4 109.2 177.8 108.2C179.4 107.6 181.6 108.7 183.4 110.6L181.8 91.2C182.1 89.1 183.1 87.3 184.2 87.2C185.6 87 187.7 89.1 188.2 92.8L189.8 106.5L194.6 92.8C195.8 90.3 197.5 88.5 198.6 88.8C199.9 89.1 200.9 92 200.2 96.1L196.2 113C198.6 111.4 201.2 111.1 202.7 112.2C204.2 113.4 203.9 115.9 203.5 118.7C203.1 121.9 201.9 124.4 201.1 126L192.2 133.3L182.7 128.9C181.4 128.1 180.7 126.4 181.3 124.9Z" fill="white"/>
<path d="M192.4 134.2L182.5 129.6C180.6 128.7 179.8 126.6 180.5 124.7L180.8 124C179 122.8 176.3 120.4 175.4 116.6C174.9 114.5 174.3 108.9 177.5 107.6C178.9 107 180.7 107.5 182.5 108.8L181 91.4V91.3C181.3 89.3 182.3 86.9 184.1 86.6C184.8 86.5 185.5 86.7 186.2 87.2C187.6 88.3 188.7 90.4 189.1 92.9L190.3 103.2L194 92.7C195.1 90.4 197.1 87.8 198.9 88.2C200.9 88.6 201.8 92.2 201.1 96.4L197.5 111.6C199.7 110.6 201.9 110.6 203.3 111.7C205.2 113.2 204.8 116 204.4 118.9C204 121.5 203.2 124.1 201.9 126.4L201.8 126.5L192.4 134.2ZM182 125.2C181.6 126.3 182.1 127.6 183.1 128.1L192.1 132.3L200.5 125.5C201.7 123.3 202.4 121 202.8 118.7C203.1 116.2 203.4 113.9 202.3 113C201.2 112.1 198.9 112.5 196.8 113.9L195.1 115L199.6 96.1C200.2 92.3 199.2 89.9 198.6 89.8C198.1 89.7 196.7 90.8 195.5 93.4L189.5 110.3L187.5 93.1C187.2 90.7 186.1 89.1 185.3 88.5C185 88.3 184.6 88.1 184.4 88.2C183.8 88.3 183 89.6 182.7 91.5L184.5 113.1L182.9 111.4C181.2 109.6 179.3 108.7 178.1 109.2C176.4 109.9 176.3 113.8 177 116.3C177.9 120 180.7 122.1 182.3 123.1L182.9 123.5L182 125.2Z" fill="black"/>
<path d="M183.4 110.6L186.6 114.3C187.6 115.5 188 117.1 187.6 118.7C187.5 119.1 187.1 119.4 186.6 119.3L184.9 119C183.5 118.8 182.5 117.6 182.5 116.2" fill="white"/>
<path d="M186.8 120.2C186.7 120.2 186.6 120.2 186.5 120.2L184.8 119.9C183 119.6 181.7 118.1 181.7 116.3C181.7 115.9 182.1 115.5 182.5 115.5C182.9 115.5 183.3 115.9 183.3 116.3C183.3 117.3 184 118.2 185 118.3L186.7 118.6C187.1 117.3 186.8 115.9 185.9 114.9L182.7 111.2C182.4 110.9 182.4 110.4 182.8 110.1C183.1 109.8 183.6 109.8 183.9 110.2L187.1 113.9C188.3 115.3 188.8 117.2 188.3 119C188.3 119.7 187.6 120.2 186.8 120.2Z" fill="black"/>
<path d="M196.4 113.1L192.2 117.3C191.8 117.7 191.7 118.2 191.8 118.7C192.1 119.9 193.5 120.6 194.6 120L198.8 117.9" fill="white"/>
<path d="M193.6 121C193.2 121 192.8 120.9 192.4 120.7C191.6 120.3 191.1 119.7 190.9 118.8C190.7 118 190.9 117.2 191.5 116.6L195.7 112.4C196 112.1 196.5 112.1 196.8 112.4C197.1 112.7 197.1 113.2 196.8 113.5L192.6 117.7C192.4 117.9 192.4 118.1 192.4 118.4C192.5 118.8 192.7 119 193.1 119.2C193.4 119.4 193.8 119.3 194.1 119.2L198.3 117.1C198.7 116.9 199.2 117.1 199.4 117.5C199.6 117.9 199.4 118.4 199 118.6L194.8 120.7C194.5 120.9 194.1 121 193.6 121Z" fill="black"/>
<path d="M28.5 181.7L17.5 185.6C16 186.1 15.2 187.6 15.6 189.1L18.2 199.4C18.3 199.5 19.6 200.7 21.4 200.2C23.3 199.7 23.8 197.9 23.8 197.8C23.8 196.9 24.9 196.5 25.5 197.1L26.2 197.8C27.4 198.7 29.1 198.7 30.2 197.8C31.4 196.8 31.7 195.1 31 193.8C32.1 196.1 34.4 196.9 35.8 196.2C37 195.6 37.4 194 37.4 193.8C37.4 189.7 35.8 185.7 32.8 182.8C31.7 181.6 30 181.2 28.5 181.7Z" fill="white"/>
<path d="M20.5 201.1C19.2 201.1 18.1 200.4 17.6 200C17.5 199.9 17.4 199.8 17.4 199.6L14.8 189.3C14.3 187.4 15.4 185.5 17.2 184.8L28.2 180.9C30 180.3 32.1 180.7 33.4 182.1C36.5 185.2 38.2 189.3 38.2 193.7C38.2 193.8 38.2 193.8 38.2 193.8C38.1 194.3 37.7 196.1 36.1 196.8C34.9 197.4 33.3 197.1 32 196.2C31.8 197 31.3 197.8 30.6 198.3C29.1 199.5 27 199.5 25.6 198.3C25.6 198.3 25.6 198.3 25.5 198.2L24.8 197.5C24.7 197.4 24.7 197.4 24.6 197.5C24.5 197.5 24.5 197.6 24.5 197.7C24.5 197.8 24.5 197.8 24.5 197.9C24.5 198 23.8 200.3 21.5 200.9C21.2 201.1 20.8 201.1 20.5 201.1ZM18.8 198.9C19.2 199.2 20 199.7 21.1 199.4C22.4 199.1 22.8 197.9 22.9 197.6C23 196.9 23.4 196.3 24 196.1C24.7 195.8 25.5 196 26 196.5L26.7 197.2C27.6 197.9 28.8 197.9 29.7 197.2C30.6 196.5 30.8 195.3 30.4 194.3C30.4 194.3 30.4 194.2 30.3 194.2C30.1 193.8 30.3 193.3 30.7 193.1C31.1 192.9 31.6 193 31.8 193.4C31.8 193.4 31.8 193.5 31.9 193.5C32.8 195.2 34.6 195.9 35.6 195.4C36.4 195 36.7 194 36.8 193.6C36.8 189.7 35.2 186 32.5 183.2C31.6 182.3 30.2 181.9 28.9 182.4L17.9 186.3C16.8 186.7 16.2 187.8 16.5 188.9L18.8 198.9Z" fill="black"/>
<path d="M45.4 55.5C44.3 58.1 47.4 60.3 49.6 58.6C52.8 56.1 57.3 53.7 63.2 53.5C68.6 53.3 72.9 55 76.1 57C78.5 58.5 81.3 55.9 79.9 53.4C76.5 47.3 70.1 43.3 63.1 43.3C55.4 43.3 48.4 48.3 45.4 55.5Z" fill="black"/>
<path d="M82.8 56.5C81.7 59.1 84.8 61.3 87 59.6C90.2 57.1 94.7 54.7 100.6 54.5C106 54.3 110.3 56 113.5 58C115.9 59.5 118.7 56.9 117.3 54.4C113.9 48.3 107.5 44.3 100.5 44.3C92.8 44.3 85.8 49.3 82.8 56.5Z" fill="black"/>
<path d="M50.1 144.7C51.9 143.1 54.6 142.7 56.8 143.9C64.6 147.9 74.2 150.9 84.3 148.6C104.2 144.2 113.2 121.8 122.2 125.2C127.4 127.2 128.4 136.3 128.7 138.9C130 151.8 120.7 161.3 117.4 164.7C104.7 177.8 87.4 178.4 82.7 178.4C77.9 178.4 63.6 179.4 52.9 169.5C49.7 166.5 44.1 161.3 44.8 154.2C45.2 149.9 47.8 146.7 50.1 144.7Z" fill="white"/>
<path d="M79.4 179.2C73 179.2 61.3 178.5 52.2 170.1C49 167.1 43.1 161.6 43.9 154.1C44.4 149.5 47.2 146.1 49.5 144C51.6 142.2 54.6 141.8 57.1 143.1C66.8 148 75.8 149.6 84 147.8C94.2 145.5 101.6 138.3 107.5 132.5C113.1 127 117.6 122.6 122.3 124.4C126.1 125.8 128.4 130.7 129.3 138.8C130.7 152 121 162 117.8 165.3C105.5 177.9 89.1 179.3 82.5 179.3C82.1 179.3 81.7 179.3 81.3 179.3C80.8 179.2 80.1 179.2 79.4 179.2ZM50.6 145.3C48.5 147.2 46 150.2 45.5 154.3C44.8 161 50.1 166 53.3 168.9C63 177.8 75.8 177.6 81.3 177.6C81.8 177.6 82.2 177.6 82.6 177.6C88.9 177.6 104.9 176.3 116.7 164.1C120.1 160.6 129.1 151.4 127.8 138.9C127 131.4 125 127.1 121.9 125.9C118.1 124.5 114 128.5 108.8 133.6C102.7 139.5 95.2 146.9 84.5 149.3C75.9 151.2 66.5 149.6 56.5 144.5C54.5 143.6 52.2 143.9 50.6 145.3Z" fill="black"/>
<path d="M36.6 125.2L14.7 149.2C12.7 151.4 11.9 154.4 12.4 157.3L17.2 182.5L26.9 180.1L22.3 161.5C21.7 159 22.4 156.3 24.2 154.5L43 135.7" fill="#D4145A"/>
<path d="M17.3 183.2C17.1 183.2 17 183.2 16.9 183.1C16.7 183 16.6 182.8 16.5 182.6L11.7 157.4C11.1 154.3 12 151 14.2 148.6L36.1 124.6C36.4 124.3 36.9 124.2 37.2 124.5C37.5 124.8 37.6 125.3 37.3 125.6L15.4 149.6C13.6 151.6 12.8 154.3 13.3 157L17.9 181.4L26 179.4L21.6 161.6C20.9 158.8 21.7 155.9 23.7 153.9L42.5 135.1C42.8 134.8 43.3 134.8 43.6 135.1C43.9 135.4 43.9 135.9 43.6 136.2L24.8 155C23.2 156.6 22.5 159 23.1 161.2L27.7 179.8C27.8 180 27.7 180.2 27.6 180.4C27.5 180.6 27.3 180.7 27.1 180.8L17.4 183.2H17.3Z" fill="black"/>
<path d="M23.064 184.757C26.7631 183.841 29.5035 182.055 29.1848 180.769C28.8662 179.482 25.6092 179.182 21.91 180.098C18.2109 181.014 15.4705 182.799 15.7892 184.086C16.1078 185.373 19.3649 185.673 23.064 184.757Z" fill="white"/>
<path d="M19.1 186.1C17 186.1 15.4 185.6 15 184.3C14.5 182.1 18.1 180.2 21.7 179.3C25.3 178.4 29.4 178.4 29.9 180.6C30.4 182.8 26.8 184.7 23.2 185.6C21.9 185.9 20.4 186.1 19.1 186.1ZM25.9 180.4C24.9 180.4 23.7 180.5 22.2 180.9C18.4 181.8 16.6 183.5 16.7 183.9C16.8 184.3 19.1 185 23 184C26.8 183.1 28.6 181.4 28.5 181C28.3 180.7 27.4 180.4 25.9 180.4Z" fill="black"/>
<path d="M136.7 134C136.7 134 156.9 160.6 163.3 160.6C169.8 160.6 189.1 134 189.1 134L180.2 129.2L165.7 146.9L139.9 118.7" fill="#D4145A"/>
<path d="M163.3 161.5C156.6 161.5 138.1 137.3 136 134.6C135.7 134.2 135.8 133.7 136.2 133.5C136.6 133.2 137.1 133.3 137.3 133.7C145.3 144.3 158.8 160 163.3 160C167.6 160 180.2 145 187.9 134.5L180.4 130.4L166.3 147.6C166.2 147.8 165.9 147.9 165.7 147.9C165.5 147.9 165.2 147.8 165.1 147.6L139.3 119.4C139 119.1 139 118.6 139.4 118.3C139.7 118 140.2 118 140.5 118.4L165.7 145.9L179.6 128.9C179.8 128.6 180.3 128.5 180.6 128.7L189.5 133.5C189.7 133.6 189.8 133.8 189.9 134C190 134.2 189.9 134.5 189.8 134.7C187.7 137.3 169.9 161.5 163.3 161.5Z" fill="black"/>
<path d="M192.6 133.961C193.162 132.822 190.487 130.353 186.624 128.446C182.761 126.539 179.174 125.916 178.612 127.055C178.049 128.194 180.725 130.664 184.588 132.571C188.45 134.478 192.038 135.1 192.6 133.961Z" fill="white"/>
<path d="M191.1 135.3C190.7 135.3 190.2 135.3 189.7 135.2C188.1 134.9 186.2 134.2 184.2 133.3C181.3 131.9 176.8 128.9 177.9 126.7C179 124.5 184.1 126.3 187 127.7C189.9 129.1 194.4 132.1 193.3 134.3C193 135 192.2 135.3 191.1 135.3ZM180.1 127.3C179.7 127.3 179.4 127.4 179.4 127.4C179.4 127.8 181 129.8 185 131.8C189 133.8 191.5 133.8 191.9 133.6C191.9 133.1 190.3 131.1 186.3 129.2C183.3 127.7 181.2 127.3 180.1 127.3Z" fill="black"/>
<path d="M99.9 263.1H85C83.9 263.1 83 262.2 83 261.1V259.5C83 258.4 83.9 257.5 85 257.5H99.9C101 257.5 101.9 258.4 101.9 259.5V261.1C102 262.2 101.1 263.1 99.9 263.1Z" fill="white"/>
<path d="M99.4 263.9H85.7C83.8 263.9 82.3 262.4 82.3 260.5V260.1C82.3 258.2 83.8 256.7 85.7 256.7H99.4C101.3 256.7 102.8 258.2 102.8 260.1V260.5C102.8 262.4 101.2 263.9 99.4 263.9ZM85.6 258.3C84.6 258.3 83.8 259.1 83.8 260.1V260.5C83.8 261.5 84.6 262.3 85.6 262.3H99.3C100.3 262.3 101.1 261.5 101.1 260.5V260.1C101.1 259.1 100.3 258.3 99.3 258.3H85.6Z" fill="black"/>
<path d="M66.5328 147.727L59.4838 174.41L61.0307 174.819L68.0797 148.135L66.5328 147.727Z" fill="black"/>
<path d="M95.8506 143.627L94.404 144.311L107.522 172.067L108.969 171.383L95.8506 143.627Z" fill="black"/>
<path d="M96.7 180.4C95.1 181.5 91.5 183.9 86.2 184.4C80.3 185 75.8 182.9 74.1 182" fill="#D4145A"/>
<path d="M84.2 185.4C79.4 185.4 75.7 183.8 73.8 182.8C73.4 182.6 73.3 182.1 73.5 181.7C73.7 181.3 74.2 181.2 74.6 181.4C76.7 182.5 80.9 184.3 86.2 183.7C90.8 183.2 94.2 181.3 96.3 179.8C96.7 179.5 97.2 179.6 97.4 180C97.7 180.4 97.6 180.9 97.2 181.1C95 182.7 91.3 184.8 86.3 185.3C85.6 185.3 84.9 185.4 84.2 185.4Z" fill="black"/>
<path d="M31.4 285.3V278.8C32 273.2 35.8 268.5 41.1 266.7C46.1 265 51.7 266.2 55.6 269.9L63.7 262.6H80.6V285.2H31.4V285.3Z" fill="#662D91"/>
<path d="M80.6 286.1H31.4C31 286.1 30.6 285.7 30.6 285.3V278.8V278.7C31.3 272.8 35.3 267.8 40.8 265.9C45.9 264.2 51.5 265.3 55.6 268.8L63.1 262C63.2 261.9 63.4 261.8 63.6 261.8H80.5C80.9 261.8 81.3 262.2 81.3 262.6V285.2C81.4 285.7 81 286.1 80.6 286.1ZM32.2 284.5H79.8V263.5H64L56.2 270.6C55.9 270.9 55.4 270.9 55.1 270.6C51.4 267.1 46.2 265.9 41.4 267.6C36.5 269.3 32.9 273.7 32.3 279V284.5H32.2Z" fill="black"/>
<path d="M56 282.1C55.8 282.1 55.7 282.1 55.5 282C55.1 281.7 55 281.2 55.3 280.9L55.9 280.1C57.9 277.2 57.6 273.2 55 270.6C54.7 270.3 54.7 269.8 55 269.5C55.3 269.2 55.8 269.2 56.1 269.5C59.2 272.6 59.6 277.4 57.2 281L56.6 281.8C56.5 281.9 56.3 282.1 56 282.1Z" fill="black"/>
<path d="M58 276.5C57.8 276.5 57.5 276.4 57.4 276.2C57.1 275.9 57.2 275.3 57.5 275.1L68.5 266.2L62.7 264.1C62.3 263.9 62.1 263.5 62.2 263.1C62.4 262.7 62.8 262.5 63.2 262.6L70.3 265.2C70.6 265.3 70.8 265.5 70.8 265.8C70.8 266.1 70.7 266.4 70.5 266.6L58.4 276.4C58.4 276.5 58.2 276.5 58 276.5Z" fill="black"/>
<path d="M65.7 270.3C65.5 270.3 65.4 270.3 65.3 270.2L59.8 266.5C59.4 266.3 59.3 265.8 59.6 265.4C59.8 265 60.3 264.9 60.7 265.2L66.2 268.9C66.6 269.1 66.7 269.6 66.4 270C66.2 270.2 65.9 270.3 65.7 270.3Z" fill="black"/>
<path d="M62.9 272.6C62.7 272.6 62.5 272.5 62.4 272.4L57.5 268.4C57.2 268.1 57.1 267.6 57.4 267.3C57.7 267 58.2 266.9 58.5 267.2L63.4 271.2C63.7 271.5 63.8 272 63.5 272.3C63.4 272.5 63.2 272.6 62.9 272.6Z" fill="black"/>
<path d="M80.6 275.8V281.2H75.8C75.7 280.9 75.1 279.4 75.8 278C76.5 276.4 78.5 275.5 80.6 275.8Z" fill="white"/>
<path d="M80.6 282.1H75.8C75.5 282.1 75.2 281.9 75.1 281.6C74.9 281 74.4 279.4 75.1 277.7C76 275.7 78.4 274.6 80.8 275C81.2 275.1 81.5 275.4 81.5 275.8V281.2C81.4 281.7 81 282.1 80.6 282.1ZM76.3 280.4H79.7V276.5C78.3 276.4 76.9 277.2 76.4 278.3C76.1 279.1 76.2 279.9 76.3 280.4Z" fill="black"/>
<path d="M80.6 281.3H31.4V285.3H80.6V281.3Z" fill="white"/>
<path d="M81.4 286.1H30.6V280.5H81.4V286.1ZM32.2 284.5H79.8V282.1H32.2V284.5Z" fill="black"/>
<path d="M80.2 263.1H64.5C63.4 263.1 62.5 262.2 62.5 261.1V259.5C62.5 258.4 63.4 257.5 64.5 257.5H80.2C81.3 257.5 82.2 258.4 82.2 259.5V261.1C82.2 262.2 81.3 263.1 80.2 263.1Z" fill="white"/>
<path d="M79.6 263.9H65.1C63.2 263.9 61.7 262.4 61.7 260.5V260.1C61.7 258.2 63.2 256.7 65.1 256.7H79.6C81.5 256.7 83 258.2 83 260.1V260.5C83 262.4 81.5 263.9 79.6 263.9ZM65.1 258.3C64.1 258.3 63.3 259.1 63.3 260.1V260.5C63.3 261.5 64.1 262.3 65.1 262.3H79.6C80.6 262.3 81.4 261.5 81.4 260.5V260.1C81.4 259.1 80.6 258.3 79.6 258.3H65.1Z" fill="black"/>
<path d="M82.2 94.1C82.2 96.8 82 99.3 81.7 101.8C79.9 115.5 73.2 125.6 65.3 125.6C57.5 125.6 50.9 115.7 48.9 102.3C48.5 99.7 48.3 97 48.3 94.1C48.3 76.7 55.9 62.6 65.2 62.6C74.5 62.6 82.2 76.7 82.2 94.1Z" fill="#9E005D"/>
<path d="M65.3 126.4C57.2 126.4 50.2 116.5 48.1 102.4C47.7 99.7 47.5 96.9 47.5 94.1C47.5 76.3 55.5 61.8 65.2 61.8C75 61.8 82.9 76.3 82.9 94.1C82.9 96.7 82.7 99.4 82.4 101.9C80.6 116.3 73.5 126.4 65.3 126.4ZM65.3 63.5C56.4 63.5 49.2 77.3 49.2 94.2C49.2 96.9 49.4 99.7 49.8 102.3C51.7 115.6 58.1 124.9 65.4 124.9C72.8 124.9 79.2 115.4 81 101.8C81.3 99.3 81.5 96.8 81.5 94.2C81.4 77.2 74.2 63.5 65.3 63.5Z" fill="black"/>
<path d="M81.7 101.8C79.9 115.5 73.2 125.6 65.3 125.6C57.5 125.6 50.9 115.7 48.9 102.3C57.5 100.6 70.4 99 81.7 101.8Z" fill="#F70C5B"/>
<path d="M65.3 126.4C57.2 126.4 50.2 116.5 48.1 102.4L48 101.6L48.8 101.5C57.6 99.7 70.6 98.2 81.9 101L82.6 101.2L82.5 101.9C80.6 116.3 73.5 126.4 65.3 126.4ZM49.8 102.9C51.9 115.8 58.1 124.7 65.2 124.7C72.4 124.7 78.8 115.6 80.7 102.4C70.2 100 58.3 101.3 49.8 102.9Z" fill="black"/>
<path d="M108.8 94.1C108.8 96.8 108.6 99.3 108.3 101.8C106.5 115.5 99.8 125.6 91.9 125.6C84.1 125.6 77.5 115.7 75.5 102.3C75.1 99.7 74.9 97 74.9 94.1C74.9 76.7 82.5 62.6 91.8 62.6C101.1 62.6 108.8 76.7 108.8 94.1Z" fill="#9E005D"/>
<path d="M91.9 126.4C83.8 126.4 76.8 116.5 74.7 102.4C74.3 99.7 74.1 96.9 74.1 94.1C74.1 76.3 82.1 61.8 91.8 61.8C101.5 61.8 109.5 76.3 109.5 94.1C109.5 96.7 109.3 99.4 109 101.9C107.2 116.3 100.1 126.4 91.9 126.4ZM91.9 63.5C83 63.5 75.8 77.3 75.8 94.2C75.8 96.9 76 99.7 76.4 102.3C78.3 115.6 84.7 124.9 92 124.9C99.4 124.9 105.8 115.4 107.6 101.8C107.9 99.3 108.1 96.8 108.1 94.2C108 77.2 100.8 63.5 91.9 63.5Z" fill="black"/>
<path d="M108.3 101.8C106.5 115.5 99.8 125.6 91.9 125.6C84.1 125.6 77.5 115.7 75.5 102.3C84.1 100.6 97 99 108.3 101.8Z" fill="#F70C5B"/>
<path d="M91.9 126.4C83.8 126.4 76.8 116.5 74.7 102.4L74.6 101.6L75.4 101.5C84.2 99.7 97.2 98.2 108.5 101L109.2 101.2L109.1 101.9C107.2 116.3 100.1 126.4 91.9 126.4ZM76.4 102.9C78.5 115.8 84.7 124.7 91.8 124.7C99 124.7 105.4 115.6 107.3 102.4C96.8 100 84.9 101.3 76.4 102.9Z" fill="black"/>
<path d="M91.2 38L80.6 12.6L92.6 37.3L91.2 38Z" fill="black"/>
<path d="M94.4 37.7L104.8 12.3L95.9 38.3L94.4 37.7Z" fill="black"/>
<path d="M97.9 38.4L107.1 26.6L99.3 39.3L97.9 38.4Z" fill="black"/>
<path d="M23.3 193.6V193.9L23.2 193.6C22.9 193 22.8 192.4 22.6 191.7V191.5C22.5 191.2 22.7 190.9 22.8 190.9C23 190.9 23.2 191.1 23.2 191.4V191.6C23.3 192.3 23.4 193 23.3 193.6Z" fill="black"/>
<path d="M27.7 192.7L27.8 193L27.6 192.7C27.2 192.2 26.8 191.7 26.5 191.1L26.4 190.9C26.2 190.6 26.3 190.3 26.4 190.2C26.6 190.1 26.8 190.3 27 190.5L27.1 190.7C27.3 191.4 27.6 192 27.7 192.7Z" fill="black"/>
<path d="M31.9 191L32 191.3L31.7 191.1C31.2 190.7 30.8 190.2 30.4 189.6L30.3 189.4C30.1 189.1 30.1 188.8 30.2 188.7C30.4 188.6 30.6 188.7 30.8 189L30.9 189.2C31.3 189.8 31.6 190.4 31.9 191Z" fill="black"/>
</svg>
