<svg width="369" height="308" viewBox="0 0 369 308" fill="none" xmlns="http://www.w3.org/2000/svg">
<path d="M51.4 307.1C47.7 307.1 44.4 305.8 41.8 303.6C38.9 302.6 36.3 300.8 34.5 298.3L31.6 294.4L4.40004 264C0.200036 259.3 -0.600001 252.6 2.3 247L36.5 181.7V139.6C36.5 110.4 48.8 82.5 70.3 63C76 56.1 83.3 51 91.6 48.1C99.7 43.9 108.2 40.8 117.1 38.9L114.2 24.2C112.6 16.3 117.6 8.49998 125.5 6.69998C126.7 6.39998 127.8 6.29999 129 6.29999C135.6 6.29999 141.6 10.7 143.5 17.3L147.8 33.1L155.8 10.7C158 4.59998 163.8 0.799988 169.9 0.799988C171.5 0.799988 173 0.999991 174.6 1.59999C182.3 4.09999 186.6 12.4 184.3 20.1L177.1 44.2C182.3 46.3 187.4 48.9 192.3 51.8C222.1 70 240.6 103.5 240.6 139.1V190.2L263 218.3L274 204L260.4 196.1C252.4 191.5 249.6 181.2 254.3 173.2L271.9 142.8C274.9 137.6 280.5 134.4 286.4 134.4C289.3 134.4 292.3 135.2 294.8 136.7L315.7 148.8C321.6 149 329.9 150.4 338.1 155.8C344.1 159.8 348.1 164.7 350.7 169L359.8 174.2C363.7 176.4 366.5 180.1 367.6 184.4C368.8 188.7 368.2 193.2 365.9 197.1L348.3 227.5C345.3 232.7 339.7 235.9 333.8 235.9C330.9 235.9 328 235.1 325.4 233.6L315.6 227.9C314 228.6 312.3 229 310.5 229.2L271.9 272.6C269.1 275.8 265 277.6 260.7 277.6C260.6 277.6 260.5 277.6 260.5 277.6C256.1 277.5 252 275.6 249.2 272.2L240.4 261.6V291.8C240.4 300.1 233.7 306.8 225.4 306.8H51.4V307.1Z" fill="white"/>
<path d="M352.2 187.3L339.4 179.9C338.3 177.3 335.5 172.2 329.7 168.4C322.1 163.3 314.3 163.8 312 164C312 164 311.9 164 311.9 164.1L287.2 149.8C286.4 149.3 285.3 149.6 284.8 150.4L267.2 180.8C266.7 181.6 267 182.7 267.8 183.2L288.8 195.4C288.8 195.8 288.7 196.2 288.7 196.6V197.3L298.8 202.8C294.1 200.6 290.1 200 289.2 201.6C288.6 202.6 289.5 204.2 291.2 206.1L262.7 243L225.1 195.8V139.4C225.1 109.1 209.8 80.6 184 64.9C176 60 167.3 56.4 158.1 54.2L169.5 16L156 53.7C150.2 52.5 144.1 51.8 138 51.8C137.2 51.8 136.4 51.8 135.6 51.8L136.8 51.5L128.5 21.4L134.6 51.8C129.7 52 124.9 52.6 120.2 53.6C112 55.3 104.3 58.2 97.2 62C90.8 64 85.1 68 80.9 73.4C62.5 89.7 51.2 113.7 51.2 139.7V185.5L15.5 254L43.1 284.9L46.4 289.3L51.4 285.4V292H225.4V262.7V220.4L260.7 262.7L304.3 213.7C307.4 214.7 309.8 214.7 310.5 213.6C311.6 211.8 307.7 207.5 301.9 204.2C301.5 204 301.1 203.8 300.7 203.6L298.9 201.1L332.9 220.8C333.7 221.3 334.8 221 335.3 220.2L352.9 189.8C353.4 188.9 353.1 187.8 352.2 187.3ZM33.2 254L51.4 216.8V262.3V275.7L33.2 254Z" fill="white"/>
<path d="M146.9 66.6C145.9 66.6 145 66.5 144 66.3L141.8 65.9C137.8 65.1 134.3 62.7 132.1 59.3C129.9 55.9 129.2 51.7 130.2 47.7L136.3 22.7C138 15.9 144.1 11.2 150.9 11.2C151.9 11.2 152.8 11.3 153.8 11.5C161.7 13.1 166.9 20.5 165.7 28.5L161.8 54C161.2 58 158.9 61.7 155.6 64C153 65.7 150 66.6 146.9 66.6Z" fill="white"/>
<path d="M146.9 51.6L150.8 26.2L144.8 51.2L146.9 51.6Z" fill="white"/>
<path d="M64.7 199.8L38.2 254L61.4 281.6L51.5 289.3L48.1 284.9L20.5 254L57 184.4" fill="#F70C5B"/>
<path d="M64.7 199.8L38.2 254L61.4 281.6L51.5 289.3L48.1 284.9L20.5 254L57 184.4" stroke="black" stroke-width="2" stroke-miterlimit="10" stroke-linecap="round" stroke-linejoin="round"/>
<path d="M287.3 149.7L352.3 187.3C353.1 187.8 353.4 188.9 352.9 189.7L335.3 220.1C334.8 220.9 333.7 221.2 332.9 220.7L267.9 183.1C267.1 182.6 266.8 181.5 267.3 180.7L284.9 150.3C285.3 149.5 286.4 149.2 287.3 149.7Z" fill="#10071E" stroke="black" stroke-width="2" stroke-miterlimit="10"/>
<path d="M289.5 154.2L348.5 188.3C349.3 188.8 349.6 189.9 349.1 190.7L334.3 216.3C333.8 217.1 332.7 217.4 331.9 216.9L272.9 182.8C272.1 182.3 271.8 181.2 272.3 180.4L287.1 154.8C287.5 154 288.6 153.7 289.5 154.2Z" fill="#333333"/>
<path d="M280.6 170.8C282.478 170.8 284 169.278 284 167.4C284 165.522 282.478 164 280.6 164C278.722 164 277.2 165.522 277.2 167.4C277.2 169.278 278.722 170.8 280.6 170.8Z" fill="#10071E"/>
<path d="M51.4 292.1V262.3V139.7C51.4 98.4 79.9 62.1 120.4 53.7C126.2 52.5 132.1 51.9 138.1 51.9C154.8 51.9 170.6 56.6 184.2 64.9C210 80.7 225.3 109.2 225.3 139.4V262.8V292.1H51.4V292.1Z" fill="#F70C5B"/>
<mask id="mask0_1_330" style="mask-type:luminance" maskUnits="userSpaceOnUse" x="51" y="51" width="175" height="242">
<path d="M51.4 292.1V262.3V139.7C51.4 98.4 79.9 62.1 120.4 53.7C126.2 52.5 132.1 51.9 138.1 51.9C154.8 51.9 170.6 56.6 184.2 64.9C210 80.7 225.3 109.2 225.3 139.4V262.8V292.1H51.4V292.1Z" fill="white"/>
</mask>
<g mask="url(#mask0_1_330)">
<path d="M182.9 65.6C193.4 78.4 199.7 93.2 204.3 109C209 125.1 212.8 141.2 214.3 158C217.2 192 216.9 227.1 211.1 260.8C209.5 269.9 207.4 278.9 203.9 287.4C200.3 296.1 195.4 304.2 190.6 312.2C187.7 317 193.8 324.1 198.8 320.4C205.2 315.6 211.6 310.9 218 306.1C224.3 301.3 224.8 296.2 225.4 288.6C226.5 272.4 227.2 256.1 227.6 239.8C227.8 232.1 215.8 232.1 215.6 239.8C215.3 253.4 214.7 267 213.9 280.6C213.7 283.9 213.5 287.2 213.2 290.5C212.9 294.3 212.7 295.1 209.5 297.4C203.9 301.6 198.3 305.7 192.7 309.9C195.4 312.6 198.2 315.4 200.9 318.1C209.8 303.2 217.6 288.2 221.3 271.1C225.1 253.6 226.6 235.4 227.5 217.5C228.4 198.6 228.1 179.7 226.6 160.8C225.2 143.1 221.7 126.4 217 109.3C211.7 90.2 204.2 72.5 191.5 57C186.5 51.2 178.1 59.7 182.9 65.6Z" fill="#9E005D"/>
</g>
<mask id="mask1_1_330" style="mask-type:luminance" maskUnits="userSpaceOnUse" x="51" y="51" width="175" height="242">
<path d="M51.4 292.1V262.3V139.7C51.4 98.4 79.9 62.1 120.4 53.7C126.2 52.5 132.1 51.9 138.1 51.9C154.8 51.9 170.6 56.6 184.2 64.9C210 80.7 225.3 109.2 225.3 139.4V262.8V292.1H51.4V292.1Z" fill="white"/>
</mask>
<g mask="url(#mask1_1_330)">
<path d="M202.8 88C206.1 96 211.1 102.8 215.3 110.3C217.3 113.9 218.9 117.6 219.5 121.6C220.2 126.4 219.8 131.1 221.1 135.8C223.1 143.3 234.7 140.1 232.7 132.6C231.5 128.2 231.9 123.6 231.2 119.1C230.5 114.8 229 110.8 227.1 106.9C223.3 99.3 217.7 92.6 214.4 84.7C211.4 77.8 199.8 80.9 202.8 88Z" fill="#9E005D"/>
</g>
<path d="M51.4 292.1V262.3V139.7C51.4 98.4 79.9 62.1 120.4 53.7C126.2 52.5 132.1 51.9 138.1 51.9C154.8 51.9 170.6 56.6 184.2 64.9C210 80.7 225.3 109.2 225.3 139.4V262.8V292.1H51.4V292.1Z" stroke="black" stroke-width="2" stroke-miterlimit="10" stroke-linecap="round" stroke-linejoin="round"/>
<path d="M90.6 214.2C97.7 215.9 106.5 218.1 116.8 221C124.2 223 132.1 222.5 139.1 219.4L151.5 214C156.7 211.7 161.8 209.4 166.7 206.5C177.4 200.2 190.9 203.4 196.6 212.1C203 221.9 199 238 185.6 244.1C165.2 254.9 147.5 257.7 137 258.5C123.8 259.5 89.9 262.1 75.1 241.9C68.2 232.5 65.4 218.1 70.7 213.2C73.7 210.4 78.3 211.2 90.6 214.2Z" fill="white"/>
<mask id="mask2_1_330" style="mask-type:luminance" maskUnits="userSpaceOnUse" x="67" y="203" width="133" height="57">
<path d="M90.6 214.2C97.7 215.9 106.5 218.1 116.8 221C124.2 223 132.1 222.5 139.1 219.4L151.5 214C156.7 211.7 161.8 209.4 166.7 206.5C177.4 200.2 190.9 203.4 196.6 212.1C203 221.9 199 238 185.6 244.1C165.2 254.9 147.5 257.7 137 258.5C123.8 259.5 89.9 262.1 75.1 241.9C68.2 232.5 65.4 218.1 70.7 213.2C73.7 210.4 78.3 211.2 90.6 214.2Z" fill="white"/>
</mask>
<g mask="url(#mask2_1_330)">
<path d="M182 197.6C195 207.8 188.8 228 177.3 236.8C170.4 242 162.3 245.8 154.6 249.7C146.2 254 137.7 258.1 128.9 261.4C121.7 264.1 124.8 275.7 132.1 273C142.8 269 153 264.1 163.2 258.8C172.7 253.9 183.3 249 190.7 241C203.3 227.2 206.5 201.7 190.6 189.2C184.5 184.4 175.9 192.8 182 197.6Z" fill="#CCCCCC"/>
</g>
<path d="M90.6 214.2C97.7 215.9 106.5 218.1 116.8 221C124.2 223 132.1 222.5 139.1 219.4L151.5 214C156.7 211.7 161.8 209.4 166.7 206.5C177.4 200.2 190.9 203.4 196.6 212.1C203 221.9 199 238 185.6 244.1C165.2 254.9 147.5 257.7 137 258.5C123.8 259.5 89.9 262.1 75.1 241.9C68.2 232.5 65.4 218.1 70.7 213.2C73.7 210.4 78.3 211.2 90.6 214.2Z" stroke="black" stroke-width="2" stroke-miterlimit="10" stroke-linecap="round" stroke-linejoin="round"/>
<path d="M209.9 202L260.7 262.8L304.9 213.1L292.8 204.3L262.9 242.9L215.4 183.3" fill="#F70C5B"/>
<mask id="mask3_1_330" style="mask-type:luminance" maskUnits="userSpaceOnUse" x="209" y="183" width="96" height="80">
<path d="M209.9 202L260.7 262.8L304.9 213.1L292.8 204.3L262.9 242.9L215.4 183.3" fill="white"/>
</mask>
<g mask="url(#mask3_1_330)">
<path d="M216.4 180.5C216.1 189.6 215.8 198.8 215 207.9C214.2 217 211.7 226.3 212.5 235.4C213.2 243 225.2 243.1 224.5 235.4C223.6 226.3 226.2 216.9 227 207.9C227.8 198.8 228.1 189.7 228.4 180.5C228.6 172.8 216.6 172.8 216.4 180.5Z" fill="#9E005D"/>
</g>
<path d="M209.9 202L260.7 262.8L304.9 213.1L292.8 204.3L262.9 242.9L215.4 183.3" stroke="black" stroke-width="2" stroke-miterlimit="10" stroke-linecap="round" stroke-linejoin="round"/>
<path d="M76.2 82.2C75.1 85.2 78.8 87.6 81.2 85.6C87 80.7 96.1 75.2 108.3 75.3C118.2 75.4 126 79.1 131.3 82.9C134 84.8 137.4 81.9 135.9 79C130.4 68 119.1 60.6 106.6 60.7C93 60.6 80.9 69.6 76.2 82.2Z" fill="black"/>
<path d="M140.8 75.5C138.9 78.1 141.9 81.4 144.7 80C151.6 76.7 161.8 73.8 173.6 77.1C183.2 79.8 189.7 85.4 193.9 90.4C196 92.9 200 91 199.4 87.8C196.9 75.7 187.9 65.7 175.9 62.5C162.6 59 148.6 64.5 140.8 75.5Z" fill="black"/>
<path d="M108 218.6L93.8 254.9" stroke="black" stroke-width="2" stroke-miterlimit="10" stroke-linecap="round" stroke-linejoin="round"/>
<path d="M156.4 211.8L181.8 246" stroke="black" stroke-width="2" stroke-miterlimit="10" stroke-linecap="round" stroke-linejoin="round"/>
<path d="M130.1 221.8L135.9 258.4" stroke="black" stroke-width="2" stroke-miterlimit="10" stroke-linecap="round" stroke-linejoin="round"/>
<path d="M139.8 141.8C139.8 149.9 138.8 157.6 137 164.5C132.4 181.8 122.8 193.8 111.7 193.8C100.6 193.8 91 181.9 86.4 164.7C84.6 157.8 83.5 150.1 83.5 141.9C83.5 113.2 96.1 90 111.7 90C127.2 89.9 139.8 113.2 139.8 141.8Z" fill="#9E005D" stroke="black" stroke-width="2" stroke-miterlimit="10"/>
<path d="M137 164.5C132.4 181.8 122.8 193.8 111.7 193.8C100.6 193.8 91 181.9 86.4 164.7C97.2 162.8 118.3 160.3 137 164.5Z" fill="#F70C5B" stroke="black" stroke-width="2" stroke-miterlimit="10"/>
<path d="M185.1 141.8C185.1 149.9 184.1 157.6 182.3 164.5C177.7 181.8 168.1 193.8 157 193.8C145.9 193.8 136.3 181.9 131.7 164.7C129.9 157.8 128.8 150.1 128.8 141.9C128.8 113.2 141.4 90 157 90C172.5 89.9 185.1 113.2 185.1 141.8Z" fill="#9E005D" stroke="black" stroke-width="2" stroke-miterlimit="10"/>
<path d="M182.3 164.5C177.7 181.8 168.1 193.8 157 193.8C145.9 193.8 136.3 181.9 131.7 164.7C142.4 162.8 163.5 160.3 182.3 164.5Z" fill="#F70C5B" stroke="black" stroke-width="2" stroke-miterlimit="10"/>
<path d="M310.42 213.691C311.497 211.825 307.679 207.605 301.892 204.263C296.105 200.922 290.54 199.725 289.463 201.591C288.386 203.456 292.205 207.677 297.992 211.018C303.779 214.359 309.343 215.556 310.42 213.691Z" fill="white" stroke="black" stroke-width="2" stroke-miterlimit="10" stroke-linecap="round" stroke-linejoin="round"/>
<path d="M312.1 163.9C314.4 163.7 322.2 163.2 329.8 168.3C336.1 172.5 338.8 178.2 339.7 180.4C336.6 185.2 333.1 187.8 330.9 189.2C328.4 190.8 325.4 192.7 323.2 191.4C322.8 191.2 322.4 190.8 322.1 190.4C321 188.9 321.1 186.8 322.1 185.2L325.4 180.3L318.8 186.9C317.6 188.7 315.1 189.2 313.3 188C311.5 186.8 311 184.3 312.2 182.5L315.5 174.8L311.1 181.4C308.9 183.1 306.2 183.6 304.5 182.5C302.3 181.2 302.3 178.1 302.3 177C302.1 169.9 310.8 164.7 312.1 163.9Z" fill="white" stroke="black" stroke-width="2" stroke-miterlimit="10" stroke-linecap="round" stroke-linejoin="round"/>
<path d="M288.9 197.2V196.5C288.9 190.2 294.4 185.2 300.6 186.1C301.8 186.3 302.9 186.6 304 187.2C304.7 187.5 308.1 189.2 307.8 191C307.6 192 306.3 192.9 304.3 193.3C302.6 193.6 300.9 194.1 299.3 194.7C297.3 195.4 296.5 197.8 297.7 199.5L300.8 203.8L288.9 197.2Z" fill="white" stroke="black" stroke-width="2" stroke-miterlimit="10" stroke-linecap="round" stroke-linejoin="round"/>
<path d="M107.8 265.6C111.5 268.1 118.8 272.3 128.8 273.3C144.5 275 156.2 267.9 159.7 265.6" fill="#F70C5B"/>
<path d="M107.8 265.6C111.5 268.1 118.8 272.3 128.8 273.3C144.5 275 156.2 267.9 159.7 265.6" stroke="black" stroke-width="2" stroke-miterlimit="10" stroke-linecap="round" stroke-linejoin="round"/>
<path d="M134.8 52.1L128.7 21.5L137 51.6L134.8 52.1Z" fill="black"/>
<path d="M144.8 51.2L150.8 26.2L146.9 51.6L144.8 51.2Z" fill="black"/>
<path d="M156.1 53.9L169.7 16L158.2 54.5L156.1 53.9Z" fill="black"/>
</svg>
