<svg width="526" height="558" viewBox="0 0 526 558" fill="none" xmlns="http://www.w3.org/2000/svg">
<path d="M157.524 425.944C156.62 424.445 155.883 422.85 155.326 421.19L106.983 275.884C106.164 273.415 105.748 270.831 105.75 268.23V253.699C105.748 251.003 106.197 248.324 107.078 245.776L181.007 32C126.393 50.3213 79.4716 86.4352 47.7223 134.585C15.9729 182.735 1.22329 240.149 5.82456 297.675C10.4258 355.201 34.1131 409.529 73.1106 451.997C112.108 494.465 164.171 522.629 221 532L157.524 425.944Z" fill="url(#paint0_linear_1_2)"/>
<path d="M348.596 33L418.154 250.682C418.923 253.068 419.312 255.561 419.308 258.069V267.772C419.303 270.373 418.887 272.958 418.075 275.429L369.748 420.804C369.253 422.293 368.618 423.731 367.851 425.1L308 531C363.917 520.875 414.933 492.509 453.116 450.31C491.299 408.111 514.51 354.444 519.142 297.651C523.773 240.858 509.565 184.122 478.727 136.263C447.888 88.4029 402.146 52.1009 348.612 33H348.596Z" fill="url(#paint1_linear_1_2)"/>
<path d="M309.799 10H220.79C219.947 9.99906 219.125 10.2641 218.438 10.7583C217.752 11.2524 217.234 11.9509 216.959 12.7565L135.222 251.55C135.011 252.168 134.949 252.828 135.042 253.475C135.134 254.123 135.377 254.738 135.752 255.271C136.126 255.804 136.621 256.239 137.195 256.54C137.769 256.84 138.406 256.998 139.052 257H197.182C197.499 256.992 197.806 256.887 198.062 256.699C198.318 256.51 198.511 256.247 198.615 255.945L224.262 173.092C224.423 172.568 224.746 172.111 225.183 171.787C225.621 171.464 226.149 171.292 226.691 171.296H303.882C304.421 171.295 304.946 171.469 305.381 171.792C305.815 172.115 306.136 172.571 306.295 173.092L331.973 255.945C332.079 256.25 332.274 256.514 332.533 256.703C332.792 256.892 333.102 256.995 333.422 257H386.943C387.582 256.999 388.213 256.845 388.783 256.551C389.353 256.257 389.846 255.83 390.223 255.307C390.599 254.783 390.848 254.177 390.949 253.538C391.05 252.899 391.001 252.245 390.804 251.629L313.645 12.8195C313.38 11.9996 312.865 11.2856 312.174 10.7793C311.483 10.2729 310.652 10.0002 309.799 10ZM235.521 129.381L259.47 57.4909C259.64 56.9801 259.965 56.5364 260.398 56.2226C260.831 55.9088 261.351 55.7408 261.884 55.7425H273.765C274.321 55.7433 274.862 55.9286 275.303 56.2701C275.745 56.6116 276.064 57.0903 276.21 57.6327L295.41 129.57C295.497 129.946 295.499 130.336 295.416 130.713C295.333 131.089 295.167 131.442 294.93 131.744C294.694 132.047 294.393 132.292 294.05 132.461C293.707 132.63 293.331 132.719 292.95 132.72H237.934C237.537 132.716 237.147 132.618 236.794 132.434C236.441 132.25 236.135 131.986 235.901 131.662C235.667 131.338 235.51 130.963 235.444 130.567C235.378 130.171 235.404 129.765 235.521 129.381Z" fill="url(#paint2_linear_1_2)"/>
<path d="M395 272.476L348.898 414.93C348.792 415.236 348.596 415.503 348.336 415.694C348.076 415.886 347.764 415.992 347.442 416H180.279C179.961 415.995 179.652 415.893 179.392 415.707C179.133 415.522 178.934 415.262 178.823 414.961L161.531 364.473C161.443 364.199 161.431 363.905 161.495 363.624C161.559 363.342 161.697 363.084 161.895 362.876L222.283 301.954C222.479 301.73 222.609 301.454 222.658 301.159C222.706 300.864 222.672 300.56 222.558 300.284C222.444 300.007 222.256 299.769 222.014 299.595C221.773 299.422 221.488 299.32 221.192 299.302H169.22C168.98 299.312 168.745 299.377 168.533 299.492C168.322 299.607 168.139 299.769 167.998 299.966C167.858 300.163 167.764 300.39 167.723 300.63C167.683 300.869 167.697 301.114 167.764 301.347L177.985 332.311C178.052 332.544 178.066 332.79 178.026 333.029C177.985 333.268 177.891 333.495 177.751 333.692C177.611 333.89 177.428 334.052 177.216 334.167C177.004 334.282 176.769 334.347 176.529 334.356H152.292C151.972 334.35 151.662 334.245 151.402 334.057C151.142 333.869 150.945 333.606 150.836 333.302L130 272.588L130.791 270H274.445C274.703 270.011 274.955 270.086 275.178 270.218C275.402 270.35 275.589 270.535 275.725 270.757C275.861 270.98 275.941 271.232 275.958 271.493C275.974 271.754 275.928 272.015 275.821 272.253L231.792 361.166C231.689 361.404 231.644 361.663 231.663 361.921C231.681 362.18 231.762 362.43 231.897 362.65C232.033 362.87 232.219 363.054 232.441 363.185C232.662 363.316 232.912 363.391 233.168 363.403H281.707C282.004 363.398 282.294 363.308 282.543 363.144C282.792 362.98 282.99 362.749 283.115 362.476L322.778 270.927C322.901 270.657 323.097 270.427 323.343 270.263C323.589 270.099 323.875 270.008 324.17 270H394.177L395 272.476Z" fill="url(#paint3_linear_1_2)"/>
<path d="M303.708 492.259L338.812 435.317C338.938 435.083 339.003 434.821 339 434.556C338.997 434.291 338.926 434.03 338.794 433.799C338.662 433.568 338.473 433.374 338.244 433.234C338.016 433.094 337.756 433.014 337.487 433H187.497C187.23 433.016 186.972 433.099 186.746 433.239C186.519 433.38 186.332 433.575 186.202 433.805C186.072 434.036 186.002 434.296 186 434.56C185.998 434.824 186.063 435.084 186.189 435.317L221.293 492.259C221.434 492.482 221.629 492.666 221.86 492.796C222.091 492.925 222.352 492.995 222.617 493H302.431C302.689 492.988 302.939 492.914 303.162 492.785C303.384 492.656 303.571 492.475 303.708 492.259Z" fill="url(#paint4_linear_1_2)"/>
<path d="M235.191 514.354L261.665 557.304C261.814 557.518 262.013 557.694 262.245 557.815C262.478 557.937 262.737 558 263 558C263.263 558 263.522 557.937 263.755 557.815C263.987 557.694 264.186 557.518 264.335 557.304L290.809 514.354C290.937 514.116 291.003 513.85 291 513.581C290.997 513.311 290.925 513.047 290.791 512.812C290.657 512.577 290.465 512.38 290.234 512.238C290.002 512.096 289.738 512.014 289.466 512H236.534C236.262 512.014 235.998 512.096 235.766 512.238C235.535 512.38 235.343 512.577 235.209 512.812C235.075 513.047 235.003 513.311 235 513.581C234.997 513.85 235.063 514.116 235.191 514.354Z" fill="url(#paint5_linear_1_2)"/>
<defs>
<linearGradient id="paint0_linear_1_2" x1="113.008" y1="-2.33796" x2="113.008" y2="494.651" gradientUnits="userSpaceOnUse">
<stop stop-color="#FBB03B"/>
<stop offset="1" stop-color="#ED1E79"/>
</linearGradient>
<linearGradient id="paint1_linear_1_2" x1="413.981" y1="-2.87604" x2="413.981" y2="494.347" gradientUnits="userSpaceOnUse">
<stop stop-color="#FBB03B"/>
<stop offset="1" stop-color="#ED1E79"/>
</linearGradient>
<linearGradient id="paint2_linear_1_2" x1="263.021" y1="-1.30961" x2="263.021" y2="492.706" gradientUnits="userSpaceOnUse">
<stop stop-color="#FBB03B"/>
<stop offset="1" stop-color="#ED1E79"/>
</linearGradient>
<linearGradient id="paint3_linear_1_2" x1="262.468" y1="-6.55002" x2="262.468" y2="494.56" gradientUnits="userSpaceOnUse">
<stop stop-color="#FBB03B"/>
<stop offset="1" stop-color="#ED1E79"/>
</linearGradient>
<linearGradient id="paint4_linear_1_2" x1="262.588" y1="-0.730946" x2="262.588" y2="493.709" gradientUnits="userSpaceOnUse">
<stop stop-color="#FBB03B"/>
<stop offset="1" stop-color="#ED1E79"/>
</linearGradient>
<linearGradient id="paint5_linear_1_2" x1="262.992" y1="-9.04747" x2="262.992" y2="493.216" gradientUnits="userSpaceOnUse">
<stop stop-color="#FBB03B"/>
<stop offset="1" stop-color="#ED1E79"/>
</linearGradient>
</defs>
</svg>
