<svg width="850" height="850" viewBox="0 0 750 750" fill="none" xmlns="http://www.w3.org/2000/svg">
<path d="M0 704.7C2.4 704.9 4.79995 705.1 7.19995 705.1C45.2 705.1 76 674.3 76 636.3C76 623.4 72.5 611.4 66.3 601.1C69.3 601.4 72.3 601.6 75.3 601.6C121.3 601.6 158.5 564.3 158.5 518.4C158.5 505.9 155.7 494 150.8 483.3C153.4 483.5 155.9 483.6 158.5 483.6C211.3 483.6 254.2 440.8 254.2 387.9C254.2 380.6 253.3 373.4 251.8 366.6C258.8 367.7 265.9 368.3 273.2 368.3C344.4 368.3 402.8 314 409.5 244.6C413.4 244.9 417.3 245.1 421.3 245.1C496.9 245.1 558.2 183.8 558.2 108.2C558.2 64.2 537.5 25.1 505.3 0.0999756H0V704.7Z" fill="#280A54"/>
<path d="M221.7 38L219.9 43C218.4 47 216.1 50.7 213.1 53.7L211.3 55.5C215.9 59.2 219.5 64.1 221.7 69.7L222 70.4L222.5 68.8C224 64.3 226.7 60.2 230.2 57L232.4 55L229.6 52.3C227.3 50.1 225.6 47.5 224.4 44.5L221.7 38Z" fill="white"/>
<path d="M67.7 442L65.8999 447C64.3999 451 62.1001 454.7 59.1001 457.7L57.3 459.5C61.9 463.2 65.5 468.1 67.7 473.7L68 474.4L68.5 472.8C70 468.3 72.7 464.2 76.2 461L78.3999 459L75.6001 456.3C73.3001 454.1 71.5999 451.5 70.3999 448.5L67.7 442Z" fill="white"/>
<path d="M329.5 192C331.433 192 333 190.433 333 188.5C333 186.567 331.433 185 329.5 185C327.567 185 326 186.567 326 188.5C326 190.433 327.567 192 329.5 192Z" fill="white"/>
<path d="M152.5 195C154.433 195 156 193.433 156 191.5C156 189.567 154.433 188 152.5 188C150.567 188 149 189.567 149 191.5C149 193.433 150.567 195 152.5 195Z" fill="white"/>
<path d="M461.5 185C462.881 185 464 183.881 464 182.5C464 181.119 462.881 180 461.5 180C460.119 180 459 181.119 459 182.5C459 183.881 460.119 185 461.5 185Z" fill="white"/>
<path d="M67.5 289C68.8807 289 70 287.881 70 286.5C70 285.119 68.8807 284 67.5 284C66.1193 284 65 285.119 65 286.5C65 287.881 66.1193 289 67.5 289Z" fill="white"/>
<path d="M54.5 84C55.8807 84 57 82.8807 57 81.5C57 80.1193 55.8807 79 54.5 79C53.1193 79 52 80.1193 52 81.5C52 82.8807 53.1193 84 54.5 84Z" fill="white"/>
<path d="M158.5 417C159.881 417 161 415.881 161 414.5C161 413.119 159.881 412 158.5 412C157.119 412 156 413.119 156 414.5C156 415.881 157.119 417 158.5 417Z" fill="white"/>
<path d="M367.5 286C368.328 286 369 285.328 369 284.5C369 283.672 368.328 283 367.5 283C366.672 283 366 283.672 366 284.5C366 285.328 366.672 286 367.5 286Z" fill="white"/>
<path d="M220.5 291C221.328 291 222 290.328 222 289.5C222 288.672 221.328 288 220.5 288C219.672 288 219 288.672 219 289.5C219 290.328 219.672 291 220.5 291Z" fill="white"/>
<path d="M369.5 57C370.328 57 371 56.3284 371 55.5C371 54.6716 370.328 54 369.5 54C368.672 54 368 54.6716 368 55.5C368 56.3284 368.672 57 369.5 57Z" fill="white"/>
<path d="M488.5 105C491.538 105 494 102.538 494 99.5C494 96.4624 491.538 94 488.5 94C485.462 94 483 96.4624 483 99.5C483 102.538 485.462 105 488.5 105Z" fill="white"/>
</svg>
