<svg width="1028" height="465" viewBox="0 0 1028 465" fill="none" xmlns="http://www.w3.org/2000/svg">
<path d="M842.6 320.4L845.1 291.7L588.6 61.5L573.2 78.6L842.6 320.4Z" fill="url(#paint0_linear_6_207)"/>
<path d="M593.1 60.2L572.8 83.6L569 75L584.1 57.6L593.1 60.2Z" fill="#808080"/>
<path d="M552.5 71.2L551 77.5C549.3 84.9 552.6 92.5 559.1 96.2L584.3 110.7L565.6 75.9L552.5 71.2Z" fill="#F15A24"/>
<path d="M578 41.7L584.1 39.4001C591.1 36.7001 599.1 38.9001 603.8 44.8001L621.7 67.7L584.6 54.0001L578 41.7Z" fill="#F15A24"/>
<path d="M569.4 26.3L593 52.7L565.4 84.4L536 64.7C531.3 61.6 527.1 57.8 523.5 53.5L516.8 45.7C513 41.3 510 36.4 507.6 31.1C505.3 25.9 503.7 20.3 502.9 14.6L501 0.599976L515.1 0.5C520.9 0.5 526.6 1.30002 532.1 2.90002C537.6 4.50002 542.9 6.9 547.8 10L556.5 15.5C561.4 18.5 565.6 22.2 569.4 26.3Z" fill="#CCCCCC"/>
<path d="M547.5 52.3C554.127 52.3 559.5 46.9275 559.5 40.3C559.5 33.6726 554.127 28.3 547.5 28.3C540.873 28.3 535.5 33.6726 535.5 40.3C535.5 46.9275 540.873 52.3 547.5 52.3Z" fill="#3A1672"/>
<path d="M532.2 3L507.7 31.2C505.4 26 503.8 20.4 503 14.7L501.1 0.699951L515.2 0.599976C521 0.599976 526.7 1.4 532.2 3Z" fill="#C1272D"/>
<mask id="mask0_6_207" style="mask-type:luminance" maskUnits="userSpaceOnUse" x="501" y="0" width="32" height="32">
<path d="M532.2 3L507.7 31.2C505.4 26 503.8 20.4 503 14.7L501.1 0.699951L515.2 0.599976C521 0.599976 526.7 1.4 532.2 3Z" fill="white"/>
</mask>
<g mask="url(#mask0_6_207)">
<path d="M504.2 -1.90005C504.6 0.999952 504.1 4 503.9 6.9C503.6 10 503.6 13 503.8 16.1C504.2 22.1 505.2 28.1 506.2 34.1C507.1 33.7 508 33.3 508.9 32.9C507.3 30.7 506.7 28.2 506.2 25.6C505.7 22.6 505.2 19.6 505 16.6C504.4 10.4 505 4.19995 505.6 -1.90005C505.7 -3.00005 504.2 -3.79998 503.3 -3.19998C501.5 -1.89998 501.1 -0.100024 500.9 1.99998C500.6 4.69998 500.3 7.39995 500 10.1C501 10.1 502 10.1 503 10.1C503.2 7.69995 503.2 5.20003 502.9 2.80002C502.8 1.80002 502.4 0.599927 502.9 -0.300073C503.3 -1.00007 504.6 -2.20005 505.5 -1.90005C507.4 -1.40005 508.2 -4.30007 506.3 -4.80007C503.6 -5.60007 500.3 -3.00007 499.7 -0.300073C499.4 1.29993 499.9 3.09993 500 4.69993C500.1 6.49993 500.1 8.29995 499.9 10.1C499.7 12 502.7 12 502.9 10.1C503.1 7.99995 503.4 6 503.6 3.9C503.7 2.7 503.6 0.200001 504.8 -0.599999C504 -0.999999 503.3 -1.50005 502.5 -1.90005C501.8 4.59995 501.3 11.1 502 17.6C502.3 20.6 502.8 23.6 503.3 26.6C503.8 29.4 504.6 32.1 506.2 34.4C507.2 35.8 509.2 34.9999 508.9 33.1999C507.9 27.3999 506.9 21.5 506.6 15.6C506.5 12.7 506.5 9.8 506.7 6.9C507 4 507.4 1.09995 507 -1.90005C506.9 -3.80005 503.9 -3.80005 504.2 -1.90005Z" fill="#D8444F"/>
</g>
<path d="M551.8 31.1L554.9 48.4C554.8 48.4 561.9 38.2 551.8 31.1Z" fill="#442187"/>
<path d="M1028 96C1016.9 84.9 1001.5 78 984.5 78C950.5 78 923 105.5 923 139.5C923 144.9 923.7 150.2 925 155.3C888.6 158.1 860 186.7 860 221.5C860 222.1 860 222.6 860 223.2C853.4 221.8 846.5 221 839.5 221C785.7 221 742 264.7 742 318.5C742 320 742 321.6 742.1 323.1C727.3 312.4 709.2 306 689.5 306C660.4 306 634.6 319.9 618.2 341.4C611.7 286 564.6 243 507.5 243C455.7 243 412.2 278.3 399.7 326.1C383.5 310 361.2 300 336.5 300C316.8 300 298.7 306.3 283.9 317.1C284 315.6 284 314 284 312.5C284 258.7 240.3 215 186.5 215C179.5 215 172.6 215.8 166 217.2C166 216.6 166 216.1 166 215.5C166 180.7 137.4 152.1 101 149.3C102.3 144.3 103 139 103 133.5C103 99.5 75.5 72 41.5 72C25.5 72 10.9 78.1 0 88.1V465H1028V96Z" fill="#280A54"/>
<path d="M366.8 389L365.7 392.1C364.8 394.6 363.3 396.9 361.4 398.8L360.3 399.9C363.2 402.2 365.5 405.3 366.8 408.8L367 409.3L367.3 408.3C368.2 405.5 369.9 402.9 372.2 400.9L373.6 399.7L371.8 398C370.4 396.6 369.3 395 368.5 393.1L366.8 389Z" fill="white"/>
<path d="M49.8 250L48.7 253.1C47.8 255.6 46.2999 257.9 44.3999 259.8L43.3 260.9C46.2 263.2 48.5 266.3 49.8 269.8L50 270.3L50.3 269.3C51.2 266.5 52.9 263.9 55.2 261.9L56.6001 260.7L54.8 259C53.4 257.6 52.3 256 51.5 254.1L49.8 250Z" fill="white"/>
<path d="M953.5 403C955.433 403 957 401.433 957 399.5C957 397.567 955.433 396 953.5 396C951.567 396 950 397.567 950 399.5C950 401.433 951.567 403 953.5 403Z" fill="white"/>
<path d="M976.5 222C978.433 222 980 220.433 980 218.5C980 216.567 978.433 215 976.5 215C974.567 215 973 216.567 973 218.5C973 220.433 974.567 222 976.5 222Z" fill="white"/>
<path d="M506.5 350C508.433 350 510 348.433 510 346.5C510 344.567 508.433 343 506.5 343C504.567 343 503 344.567 503 346.5C503 348.433 504.567 350 506.5 350Z" fill="white"/>
<path d="M623.5 399C624.881 399 626 397.881 626 396.5C626 395.119 624.881 394 623.5 394C622.119 394 621 395.119 621 396.5C621 397.881 622.119 399 623.5 399Z" fill="white"/>
<path d="M782.5 427C783.328 427 784 426.328 784 425.5C784 424.672 783.328 424 782.5 424C781.672 424 781 424.672 781 425.5C781 426.328 781.672 427 782.5 427Z" fill="white"/>
<path d="M119.5 404C120.328 404 121 403.328 121 402.5C121 401.672 120.328 401 119.5 401C118.672 401 118 401.672 118 402.5C118 403.328 118.672 404 119.5 404Z" fill="white"/>
<path d="M867 337C869.209 337 871 335.209 871 333C871 330.791 869.209 329 867 329C864.791 329 863 330.791 863 333C863 335.209 864.791 337 867 337Z" fill="white"/>
<path d="M191 366C193.209 366 195 364.209 195 362C195 359.791 193.209 358 191 358C188.791 358 187 359.791 187 362C187 364.209 188.791 366 191 366Z" fill="white"/>
<defs>
<linearGradient id="paint0_linear_6_207" x1="845.008" y1="298.567" x2="594.807" y2="90.2952" gradientUnits="userSpaceOnUse">
<stop stop-color="#FBB03B"/>
<stop offset="0.4788" stop-color="#ED1C24"/>
<stop offset="1" stop-color="#FF0000"/>
</linearGradient>
</defs>
</svg>
