<svg width="698" height="552" viewBox="0 0 698 552" fill="none" xmlns="http://www.w3.org/2000/svg">
<path d="M696.8 552C697 549.7 697.2 547.3 697.2 544.9C697.2 507.3 666.7 476.9 629.2 476.9C616.5 476.9 604.6 480.4 594.4 486.5C594.7 483.6 594.9 480.6 594.9 477.6C594.9 432.2 558.1 395.3 512.6 395.3C500.2 395.3 488.5 398.1 477.9 403C478.1 400.5 478.2 397.9 478.2 395.3C478.2 343.1 435.8 300.7 383.6 300.7C376.3 300.7 369.3 301.5 362.5 303.1C363.6 296.2 364.2 289.1 364.2 281.9C364.2 211.5 310.5 153.7 241.9 147.1C242.2 143.3 242.4 139.4 242.4 135.5C242.4 60.7 181.8 0.0999756 107 0.0999756C63.5 0.0999756 24.9 20.6 0.0999756 52.4V552H696.8Z" fill="#280A54"/>
<path d="M307.8 239L306.7 242.1C305.8 244.6 304.3 246.9 302.4 248.8L301.3 249.9C304.2 252.2 306.5 255.3 307.8 258.8L308 259.3L308.3 258.3C309.2 255.5 310.9 252.9 313.2 250.9L314.6 249.7L312.8 248C311.4 246.6 310.3 245 309.5 243.1L307.8 239Z" fill="white"/>
<path d="M174.5 319C176.433 319 178 317.433 178 315.5C178 313.567 176.433 312 174.5 312C172.567 312 171 313.567 171 315.5C171 317.433 172.567 319 174.5 319Z" fill="white"/>
<path d="M80.5 492C82.433 492 84 490.433 84 488.5C84 486.567 82.433 485 80.5 485C78.567 485 77 486.567 77 488.5C77 490.433 78.567 492 80.5 492Z" fill="white"/>
<path d="M68.5 190C70.433 190 72 188.433 72 186.5C72 184.567 70.433 183 68.5 183C66.567 183 65 184.567 65 186.5C65 188.433 66.567 190 68.5 190Z" fill="white"/>
<path d="M194.5 184C195.328 184 196 183.328 196 182.5C196 181.672 195.328 181 194.5 181C193.672 181 193 181.672 193 182.5C193 183.328 193.672 184 194.5 184Z" fill="white"/>
<path d="M231.5 461C232.328 461 233 460.328 233 459.5C233 458.672 232.328 458 231.5 458C230.672 458 230 458.672 230 459.5C230 460.328 230.672 461 231.5 461Z" fill="white"/>
<path d="M401 465C403.209 465 405 463.209 405 461C405 458.791 403.209 457 401 457C398.791 457 397 458.791 397 461C397 463.209 398.791 465 401 465Z" fill="white"/>
</svg>
