<svg width="698" height="552" viewBox="0 0 698 552" fill="none" xmlns="http://www.w3.org/2000/svg">
<path d="M1.19995 552C0.999951 549.7 0.800049 547.3 0.800049 544.9C0.800049 507.3 31.3 476.9 68.8 476.9C81.5 476.9 93.4 480.4 103.6 486.5C103.3 483.6 103.1 480.6 103.1 477.6C103.1 432.2 139.9 395.3 185.4 395.3C197.8 395.3 209.5 398.1 220.1 403C219.9 400.5 219.8 397.9 219.8 395.3C219.8 343.1 262.2 300.7 314.4 300.7C321.7 300.7 328.7 301.5 335.5 303.1C334.4 296.2 333.8 289.1 333.8 281.9C333.8 211.5 387.5 153.7 456.1 147.1C455.8 143.3 455.6 139.4 455.6 135.5C455.6 60.7 516.2 0.100098 591 0.100098C634.5 0.100098 673.1 20.5999 697.9 52.3999V552H1.19995Z" fill="#280A54"/>
<path d="M615.7 334L613.9 339C612.4 343 610.1 346.7 607.1 349.7L605.3 351.5C609.9 355.2 613.5 360.1 615.7 365.7L616 366.4L616.5 364.8C618 360.3 620.7 356.2 624.2 353L626.4 351L623.6 348.3C621.3 346.1 619.6 343.5 618.4 340.5L615.7 334Z" fill="white"/>
<path d="M323.5 408C325.433 408 327 406.433 327 404.5C327 402.567 325.433 401 323.5 401C321.567 401 320 402.567 320 404.5C320 406.433 321.567 408 323.5 408Z" fill="white"/>
<path d="M619.5 223C621.433 223 623 221.433 623 219.5C623 217.567 621.433 216 619.5 216C617.567 216 616 217.567 616 219.5C616 221.433 617.567 223 619.5 223Z" fill="white"/>
<path d="M484.5 266C485.328 266 486 265.328 486 264.5C486 263.672 485.328 263 484.5 263C483.672 263 483 263.672 483 264.5C483 265.328 483.672 266 484.5 266Z" fill="white"/>
<path d="M546.5 122C549.538 122 552 119.538 552 116.5C552 113.462 549.538 111 546.5 111C543.462 111 541 113.462 541 116.5C541 119.538 543.462 122 546.5 122Z" fill="white"/>
<path d="M435 370C437.209 370 439 368.209 439 366C439 363.791 437.209 362 435 362C432.791 362 431 363.791 431 366C431 368.209 432.791 370 435 370Z" fill="white"/>
</svg>
