<svg width="756" height="584" viewBox="0 0 756 584" fill="none" xmlns="http://www.w3.org/2000/svg">
<path d="M756 584V0H590.2C557.2 25 536.2 63 536.2 105.5C536.2 122.3 539.5 138.5 545.6 153.4C489.4 166.9 448 214 448 270C375.9 270 317.5 323.9 317.5 390.5C317.5 396.2 317.9 401.9 318.8 407.4C303.9 400.1 286.8 396 268.8 396C211.9 396 165.3 436.9 161.8 488.7C152.6 485.1 142.4 483 131.8 483C96.5 483 66.8 505.1 58.1 535.1C53.7 533.7 49 533 44.1 533C19.9 533 0.199951 551.1 0.199951 573.5C0.199951 577.1 0.699951 580.6 1.69995 584H756Z" fill="#280A54"/>
<path d="M553.7 364L551.9 369C550.4 373 548.1 376.7 545.1 379.7L543.3 381.5C547.9 385.2 551.5 390.1 553.7 395.7L554 396.4L554.5 394.8C556 390.3 558.7 386.2 562.2 383L564.4 381L561.6 378.3C559.3 376.1 557.6 373.5 556.4 370.5L553.7 364Z" fill="white"/>
<path d="M189.5 523C191.433 523 193 521.433 193 519.5C193 517.567 191.433 516 189.5 516C187.567 516 186 517.567 186 519.5C186 521.433 187.567 523 189.5 523Z" fill="white"/>
<path d="M407.5 354C409.433 354 411 352.433 411 350.5C411 348.567 409.433 347 407.5 347C405.567 347 404 348.567 404 350.5C404 352.433 405.567 354 407.5 354Z" fill="white"/>
<path d="M654.5 520C656.433 520 658 518.433 658 516.5C658 514.567 656.433 513 654.5 513C652.567 513 651 514.567 651 516.5C651 518.433 652.567 520 654.5 520Z" fill="white"/>
<path d="M699.5 383C700.881 383 702 381.881 702 380.5C702 379.119 700.881 378 699.5 378C698.119 378 697 379.119 697 380.5C697 381.881 698.119 383 699.5 383Z" fill="white"/>
<path d="M727.5 140C728.881 140 730 138.881 730 137.5C730 136.119 728.881 135 727.5 135C726.119 135 725 136.119 725 137.5C725 138.881 726.119 140 727.5 140Z" fill="white"/>
<path d="M305.5 470C306.881 470 308 468.881 308 467.5C308 466.119 306.881 465 305.5 465C304.119 465 303 466.119 303 467.5C303 468.881 304.119 470 305.5 470Z" fill="white"/>
<path d="M386.5 526C387.328 526 388 525.328 388 524.5C388 523.672 387.328 523 386.5 523C385.672 523 385 523.672 385 524.5C385 525.328 385.672 526 386.5 526Z" fill="white"/>
<path d="M639.5 211C640.328 211 641 210.328 641 209.5C641 208.672 640.328 208 639.5 208C638.672 208 638 208.672 638 209.5C638 210.328 638.672 211 639.5 211Z" fill="white"/>
<path d="M601 110C603.209 110 605 108.209 605 106C605 103.791 603.209 102 601 102C598.791 102 597 103.791 597 106C597 108.209 598.791 110 601 110Z" fill="white"/>
</svg>
