<svg width="988" height="486" viewBox="0 0 988 486" fill="none" xmlns="http://www.w3.org/2000/svg">
<path d="M0 194.5V223.3L275.4 430.5L289.2 412.1L0 194.5Z" fill="url(#paint0_linear_9_208)"/>
<path d="M271 432.2L289.2 407.2L293.7 415.4L280.2 434L271 432.2Z" fill="#808080"/>
<path d="M310.6 417.7L311.5 411.2C312.6 403.7 308.6 396.4 301.8 393.2L275.4 381L297.1 414.1L310.6 417.7Z" fill="#F15A24"/>
<path d="M287.6 449.3L281.7 452.2C274.9 455.5 266.8 454 261.6 448.5L241.8 427.2L280 437.7L287.6 449.3Z" fill="#F15A24"/>
<path d="M297.6 463.9L271.8 439.7L296.5 405.7L327.5 422.8C332.4 425.5 336.9 428.9 340.9 432.8L348.2 440C352.3 444.1 355.8 448.7 358.6 453.7C361.4 458.7 363.4 464.1 364.7 469.8L367.8 483.6L353.8 484.9C348 485.4 342.3 485.1 336.6 484C331 482.9 325.5 481 320.4 478.3L311.3 473.6C306.2 471 301.7 467.7 297.6 463.9Z" fill="#CCCCCC"/>
<path d="M318.2 460C324.827 460 330.2 454.627 330.2 448C330.2 441.373 324.827 436 318.2 436C311.573 436 306.2 441.373 306.2 448C306.2 454.627 311.573 460 318.2 460Z" fill="#3A1672"/>
<path d="M336.6 483.9L358.6 453.7C361.4 458.7 363.4 464.1 364.7 469.8L367.8 483.6L353.8 484.9C348 485.3 342.2 485 336.6 483.9Z" fill="#C1272D"/>
<mask id="mask0_9_208" style="mask-type:luminance" maskUnits="userSpaceOnUse" x="336" y="453" width="32" height="33">
<path d="M336.6 483.9L358.6 453.7C361.4 458.7 363.4 464.1 364.7 469.8L367.8 483.6L353.8 484.9C348 485.3 342.2 485 336.6 483.9Z" fill="white"/>
</mask>
<g mask="url(#mask0_9_208)">
<path d="M364.9 486.1C364.3 483.2 364.6 480.2 364.5 477.2C364.5 474.2 364.2 471.2 363.8 468.3C363 462.4 361.4 456.6 359.9 450.8C359.1 451.3 358.2 451.8 357.4 452.3C359.1 454.3 359.9 456.8 360.5 459.3C361.3 462.2 362 465.1 362.5 468.1C363.6 474.2 363.6 480.3 363.5 486.5C363.5 487.9 365.1 488.4 366.1 487.6C367.7 486.3 367.9 484.2 367.9 482.3C368 479.7 368 477 368.1 474.4C367.1 474.4 366.1 474.4 365.1 474.4C365.1 476.8 365.4 479.3 365.8 481.7C366 482.8 366.6 484 365.9 485.1C365.5 485.7 364.5 486.9 363.7 486.8C361.8 486.4 361 489.3 362.9 489.7C365.7 490.3 368.8 487.6 369.2 484.8C369.4 483.2 368.8 481.6 368.5 480C368.2 478.2 368.1 476.3 368.1 474.4C368.1 472.5 365.1 472.5 365.1 474.4C365 476.6 365 478.7 364.9 480.9C364.9 482.4 365.2 484.5 363.9 485.6C364.8 486 365.6 486.3 366.5 486.7C366.6 480.1 366.5 473.6 365.3 467.1C364.7 464 364 461 363.2 458C362.4 455.3 361.4 452.7 359.5 450.5C358.5 449.3 356.6 450.6 357 452C358.5 457.8 360.1 463.5 360.9 469.5C361.3 472.4 361.5 475.4 361.5 478.3C361.5 481.3 361.3 484.3 362 487.2C362.4 488.8 365.3 488 364.9 486.1Z" fill="#D8444F"/>
</g>
<path d="M314.7 457.6L310.2 440.7C310.2 440.7 304 451.4 314.7 457.6Z" fill="#442187"/>
<path d="M964.1 320.4C976.7 307.1 984.4 289.1 984.4 269.4C984.4 245.6 973.2 224.4 955.7 210.8C957.8 203.6 959 196 959 188.1C959 143.6 922.9 107.5 878.4 107.5C873 107.5 867.7 108 862.5 109.1C846.8 63.8001 803.9 31.3 753.3 31.3C740.9 31.3 728.9 33.3 717.7 36.9C698.2 14.8 669.6 0.800049 637.8 0.800049C608.9 0.800049 582.7 12.3 563.5 31C544.4 13.1 518.8 2.10004 490.5 2.10004C471.1 2.10004 452.9 7.30005 437.2 16.4C421.5 7.30005 403.3 2.10004 383.9 2.10004C348.1 2.10004 316.4 19.8 297 46.9C284.9 42.6 271.8 40.2 258.1 40.2C207.5 40.2 164.5 72.7 148.9 118C143.8 117 138.5 116.4 133 116.4C88.5 116.4 52.4 152.5 52.4 197C52.4 204.9 53.5 212.5 55.7 219.7C38.2 233.3 27 254.5 27 278.3C27 297.2 34.1 314.5 45.8 327.6C38.9 334 34.6 343.1 34.6 353.2C34.6 372.5 50.2 388.1 69.5 388.1C87.1 388.1 101.6 375.1 104.1 358.2C110.9 364.9 120.2 369.1 130.5 369.1C147 369.1 161 358.5 166 343.7C178.2 362.8 199.5 375.5 223.9 375.5C255.5 375.5 282.1 354.1 290 325.1C304.2 336 322 342.5 341.3 342.5C374.3 342.5 402.8 323.6 416.7 296.1C439.8 321.5 473.1 337.5 510.2 337.5C547.7 337.5 581.4 321.2 604.5 295.2C618.2 323.2 647 342.5 680.4 342.5C699.7 342.5 717.5 336 731.7 325.1C739.7 354.2 766.2 375.5 797.8 375.5C822.1 375.5 843.5 362.8 855.7 343.7C860.7 358.5 874.7 369.1 891.2 369.1C901.5 369.1 910.8 364.9 917.6 358.2C920 375.1 934.6 388.1 952.2 388.1C971.5 388.1 987.1 372.5 987.1 353.2C987 338.2 977.5 325.4 964.1 320.4Z" fill="#280A54"/>
<path d="M502.8 55L501.7 58.1C500.8 60.6 499.3 62.9 497.4 64.8L496.3 65.9C499.2 68.2 501.5 71.3 502.8 74.8L503 75.3L503.3 74.3C504.2 71.5 505.9 68.9 508.2 66.9L509.6 65.7L507.8 64C506.4 62.6 505.3 61 504.5 59.1L502.8 55Z" fill="white"/>
<path d="M128.5 244C130.433 244 132 242.433 132 240.5C132 238.567 130.433 237 128.5 237C126.567 237 125 238.567 125 240.5C125 242.433 126.567 244 128.5 244Z" fill="white"/>
<path d="M561.5 96C563.433 96 565 94.433 565 92.5C565 90.567 563.433 89 561.5 89C559.567 89 558 90.567 558 92.5C558 94.433 559.567 96 561.5 96Z" fill="white"/>
<path d="M924.5 276C926.433 276 928 274.433 928 272.5C928 270.567 926.433 269 924.5 269C922.567 269 921 270.567 921 272.5C921 274.433 922.567 276 924.5 276Z" fill="white"/>
<path d="M820.5 121C822.433 121 824 119.433 824 117.5C824 115.567 822.433 114 820.5 114C818.567 114 817 115.567 817 117.5C817 119.433 818.567 121 820.5 121Z" fill="white"/>
<path d="M158.5 284C159.328 284 160 283.328 160 282.5C160 281.672 159.328 281 158.5 281C157.672 281 157 281.672 157 282.5C157 283.328 157.672 284 158.5 284Z" fill="white"/>
<path d="M408.5 104C409.328 104 410 103.328 410 102.5C410 101.672 409.328 101 408.5 101C407.672 101 407 101.672 407 102.5C407 103.328 407.672 104 408.5 104Z" fill="white"/>
<path d="M476.5 253C477.328 253 478 252.328 478 251.5C478 250.672 477.328 250 476.5 250C475.672 250 475 250.672 475 251.5C475 252.328 475.672 253 476.5 253Z" fill="white"/>
<path d="M641.5 56C642.328 56 643 55.3284 643 54.5C643 53.6716 642.328 53 641.5 53C640.672 53 640 53.6716 640 54.5C640 55.3284 640.672 56 641.5 56Z" fill="white"/>
<path d="M713.5 286C714.328 286 715 285.328 715 284.5C715 283.672 714.328 283 713.5 283C712.672 283 712 283.672 712 284.5C712 285.328 712.672 286 713.5 286Z" fill="white"/>
<path d="M873.5 229C874.328 229 875 228.328 875 227.5C875 226.672 874.328 226 873.5 226C872.672 226 872 226.672 872 227.5C872 228.328 872.672 229 873.5 229Z" fill="white"/>
<path d="M344.5 310C345.328 310 346 309.328 346 308.5C346 307.672 345.328 307 344.5 307C343.672 307 343 307.672 343 308.5C343 309.328 343.672 310 344.5 310Z" fill="white"/>
<path d="M296 277C298.209 277 300 275.209 300 273C300 270.791 298.209 269 296 269C293.791 269 292 270.791 292 273C292 275.209 293.791 277 296 277Z" fill="white"/>
<path d="M320.5 81C323.538 81 326 78.5376 326 75.5C326 72.4624 323.538 70 320.5 70C317.462 70 315 72.4624 315 75.5C315 78.5376 317.462 81 320.5 81Z" fill="white"/>
<path d="M514.5 283C517.538 283 520 280.538 520 277.5C520 274.462 517.538 272 514.5 272C511.462 272 509 274.462 509 277.5C509 280.538 511.462 283 514.5 283Z" fill="white"/>
<path d="M798.5 301C801.538 301 804 298.538 804 295.5C804 292.462 801.538 290 798.5 290C795.462 290 793 292.462 793 295.5C793 298.538 795.462 301 798.5 301Z" fill="white"/>
<path d="M768.5 89C771.538 89 774 86.5376 774 83.5C774 80.4624 771.538 78 768.5 78C765.462 78 763 80.4624 763 83.5C763 86.5376 765.462 89 768.5 89Z" fill="white"/>
<defs>
<lineargradient id="paint0_linear_9_208" x1="-0.462201" y1="216.372" x2="266.762" y2="402.282" gradientUnits="userSpaceOnUse">
<stop stop-color="#FBB03B"/>
<stop offset="0.4788" stop-color="#ED1C24"/>
<stop offset="1" stop-color="#FF0000"/>
</lineargradient>
</defs>
</svg>
