<svg width="1028" height="393" viewBox="0 0 1028 393" fill="none" xmlns="http://www.w3.org/2000/svg">
<path d="M1028 24C1016.9 12.9 1001.5 6 984.5 6C950.5 6 923 33.5 923 67.5C923 72.9 923.7 78.2 925 83.3C888.6 86.1 860 114.7 860 149.5C860 150.1 860 150.6 860 151.2C853.4 149.8 846.5 149 839.5 149C785.7 149 742 192.7 742 246.5C742 248 742 249.6 742.1 251.1C727.3 240.4 709.2 234 689.5 234C660.4 234 634.6 247.9 618.2 269.4C611.7 214 564.6 171 507.5 171C455.7 171 412.2 206.3 399.7 254.1C383.5 238 361.2 228 336.5 228C316.8 228 298.7 234.3 283.9 245.1C284 243.6 284 242 284 240.5C284 186.7 240.3 143 186.5 143C179.5 143 172.6 143.8 166 145.2C166 144.6 166 144.1 166 143.5C166 108.7 137.4 80.1 101 77.3C102.3 72.3 103 67 103 61.5C103 27.5 75.5 0 41.5 0C25.5 0 10.9 6.09998 0 16.1V393H1028V24Z" fill="#280A54"/>
<path d="M366.8 317L365.7 320.1C364.8 322.6 363.3 324.9 361.4 326.8L360.3 327.9C363.2 330.2 365.5 333.3 366.8 336.8L367 337.3L367.3 336.3C368.2 333.5 369.9 330.9 372.2 328.9L373.6 327.7L371.8 326C370.4 324.6 369.3 323 368.5 321.1L366.8 317Z" fill="white"/>
<path d="M49.8 178L48.7 181.1C47.8 183.6 46.3 185.9 44.4 187.8L43.3 188.9C46.2 191.2 48.5 194.3 49.8 197.8L50 198.3L50.3 197.3C51.2 194.5 52.9 191.9 55.2 189.9L56.6 188.7L54.8 187C53.4 185.6 52.3 184 51.5 182.1L49.8 178Z" fill="white"/>
<path d="M953.5 331C955.433 331 957 329.433 957 327.5C957 325.567 955.433 324 953.5 324C951.567 324 950 325.567 950 327.5C950 329.433 951.567 331 953.5 331Z" fill="white"/>
<path d="M976.5 150C978.433 150 980 148.433 980 146.5C980 144.567 978.433 143 976.5 143C974.567 143 973 144.567 973 146.5C973 148.433 974.567 150 976.5 150Z" fill="white"/>
<path d="M506.5 278C508.433 278 510 276.433 510 274.5C510 272.567 508.433 271 506.5 271C504.567 271 503 272.567 503 274.5C503 276.433 504.567 278 506.5 278Z" fill="white"/>
<path d="M623.5 327C624.881 327 626 325.881 626 324.5C626 323.119 624.881 322 623.5 322C622.119 322 621 323.119 621 324.5C621 325.881 622.119 327 623.5 327Z" fill="white"/>
<path d="M782.5 355C783.328 355 784 354.328 784 353.5C784 352.672 783.328 352 782.5 352C781.672 352 781 352.672 781 353.5C781 354.328 781.672 355 782.5 355Z" fill="white"/>
<path d="M119.5 332C120.328 332 121 331.328 121 330.5C121 329.672 120.328 329 119.5 329C118.672 329 118 329.672 118 330.5C118 331.328 118.672 332 119.5 332Z" fill="white"/>
<path d="M867 265C869.209 265 871 263.209 871 261C871 258.791 869.209 257 867 257C864.791 257 863 258.791 863 261C863 263.209 864.791 265 867 265Z" fill="white"/>
<path d="M191 294C193.209 294 195 292.209 195 290C195 287.791 193.209 286 191 286C188.791 286 187 287.791 187 290C187 292.209 188.791 294 191 294Z" fill="white"/>
</svg>
