<svg width="1920" height="951" viewBox="0 0 1920 951" fill="none" xmlns="http://www.w3.org/2000/svg">
<path d="M0 380.734V437.224L535.678 843.637L562.521 807.546L0 380.734Z" fill="url(#paint0_linear_11_228)"/>
<path d="M527.12 846.972L562.521 797.935L571.273 814.019L545.015 850.502L527.12 846.972Z" fill="#808080"/>
<path d="M604.146 818.53L605.896 805.781C608.036 791.07 600.255 776.752 587.029 770.475L535.678 746.545L577.887 811.469L604.146 818.53Z" fill="#F15A24"/>
<path d="M559.408 880.512L547.932 886.201C534.706 892.674 518.95 889.731 508.836 878.943L470.323 837.164L544.626 857.76L559.408 880.512Z" fill="#F15A24"/>
<path d="M578.859 909.15L528.676 861.683L576.72 794.993L637.018 828.534C646.548 833.83 655.301 840.499 663.082 848.148L677.281 862.271C685.256 870.313 692.064 879.336 697.51 889.143C702.956 898.95 706.846 909.542 709.375 920.722L715.405 947.79L688.173 950.34C676.892 951.321 665.805 950.733 654.718 948.575C643.825 946.417 633.127 942.691 623.207 937.395L605.507 928.176C595.587 923.076 586.834 916.603 578.859 909.15Z" fill="#CCCCCC"/>
<path d="M618.928 901.5C631.819 901.5 642.269 890.962 642.269 877.963C642.269 864.963 631.819 854.425 618.928 854.425C606.037 854.425 595.587 864.963 595.587 877.963C595.587 890.962 606.037 901.5 618.928 901.5Z" fill="#3A1672"/>
<path d="M654.718 948.379L697.51 889.143C702.956 898.95 706.846 909.542 709.375 920.722L715.405 947.79L688.173 950.34C676.892 951.125 665.61 950.537 654.718 948.379Z" fill="#C1272D"/>
<mask id="mask0_11_228" style="mask-type:luminance" maskUnits="userSpaceOnUse" x="654" y="889" width="62" height="62">
<path d="M654.718 948.379L697.51 889.143C702.956 898.95 706.846 909.542 709.375 920.722L715.405 947.79L688.173 950.34C676.892 951.125 665.61 950.537 654.718 948.379Z" fill="white"/>
</mask>
<g mask="url(#mask0_11_228)">
<path d="M709.764 952.694C708.597 947.006 709.18 941.122 708.986 935.237C708.986 929.353 708.402 923.468 707.624 917.78C706.068 906.208 702.956 894.831 700.038 883.455C698.482 884.435 696.732 885.416 695.176 886.397C698.482 890.32 700.038 895.223 701.206 900.127C702.762 905.815 704.123 911.503 705.096 917.388C707.235 929.353 707.235 941.318 707.041 953.479C707.041 956.225 710.153 957.205 712.098 955.636C715.21 953.086 715.599 948.967 715.599 945.241C715.794 940.141 715.794 934.845 715.988 929.745C714.043 929.745 712.098 929.745 710.153 929.745C710.153 934.453 710.736 939.356 711.515 944.064C711.904 946.221 713.071 948.575 711.709 950.733C710.931 951.909 708.986 954.263 707.43 954.067C703.734 953.283 702.178 958.971 705.874 959.755C711.32 960.932 717.35 955.636 718.128 950.144C718.517 947.006 717.35 943.868 716.766 940.729C716.183 937.199 715.988 933.472 715.988 929.745C715.988 926.018 710.153 926.018 710.153 929.745C709.958 934.06 709.958 938.179 709.764 942.495C709.764 945.437 710.347 949.556 707.819 951.713C709.569 952.498 711.126 953.086 712.876 953.871C713.071 940.925 712.876 928.176 710.542 915.426C709.375 909.346 708.013 903.462 706.457 897.577C704.901 892.281 702.956 887.181 699.26 882.866C697.315 880.513 693.62 883.062 694.398 885.808C697.315 897.185 700.428 908.365 701.984 920.134C702.762 925.822 703.151 931.706 703.151 937.395C703.151 943.279 702.762 949.163 704.123 954.852C704.901 957.99 710.542 956.421 709.764 952.694Z" fill="#D8444F"/>
</g>
<path d="M612.12 896.793L603.367 863.644C603.367 863.644 591.308 884.632 612.12 896.793Z" fill="#442187"/>
<path d="M1875.26 627.681C1899.77 601.594 1914.75 566.287 1914.75 527.647C1914.75 480.964 1892.96 439.381 1858.92 412.706C1863.01 398.583 1865.34 383.676 1865.34 368.181C1865.34 280.896 1795.13 210.087 1708.57 210.087C1698.07 210.087 1687.76 211.068 1677.64 213.226C1647.1 124.372 1563.66 60.6244 1465.24 60.6244C1441.12 60.6244 1417.78 64.5473 1395.99 71.6086C1358.06 28.2604 1302.43 0.800049 1240.58 0.800049C1184.37 0.800049 1133.4 23.3568 1096.06 60.036C1058.91 24.9259 1009.11 3.34993 954.068 3.34993C916.333 3.34993 880.932 13.5495 850.394 31.3987C819.856 13.5495 784.455 3.34993 746.721 3.34993C677.086 3.34993 615.427 38.0677 577.692 91.2231C554.157 82.7888 528.676 78.0814 502.028 78.0814C403.607 78.0814 319.968 141.829 289.624 230.683C279.704 228.721 269.395 227.544 258.697 227.544C172.141 227.544 101.923 298.353 101.923 385.638C101.923 401.133 104.062 416.04 108.342 430.163C74.3025 456.838 52.5175 498.421 52.5175 545.104C52.5175 582.175 66.3276 616.108 89.0852 641.804C75.6641 654.357 67.3002 672.206 67.3002 692.017C67.3002 729.873 97.6436 760.472 135.184 760.472C169.417 760.472 197.621 734.973 202.484 701.824C215.711 714.966 233.8 723.204 253.834 723.204C285.928 723.204 313.16 702.413 322.885 673.383C346.615 710.847 388.046 735.757 435.506 735.757C496.971 735.757 548.71 693.782 564.077 636.9C591.697 658.28 626.32 671.029 663.86 671.029C728.048 671.029 783.483 633.958 810.52 580.018C855.451 629.839 920.223 661.222 992.386 661.222C1065.33 661.222 1130.88 629.25 1175.81 578.252C1202.46 633.173 1258.47 671.029 1323.44 671.029C1360.98 671.029 1395.6 658.28 1423.22 636.9C1438.78 693.978 1490.33 735.757 1551.79 735.757C1599.06 735.757 1640.68 710.847 1664.42 673.383C1674.14 702.413 1701.37 723.204 1733.47 723.204C1753.5 723.204 1771.59 714.966 1784.82 701.824C1789.48 734.973 1817.88 760.472 1852.12 760.472C1889.66 760.472 1920 729.873 1920 692.017C1919.81 662.595 1901.33 637.488 1875.26 627.681Z" fill="#280A54"/>
<path d="M977.992 107.111L975.853 113.191C974.102 118.095 971.184 122.606 967.489 126.333L965.349 128.491C970.99 133.002 975.464 139.083 977.992 145.948L978.381 146.928L978.965 144.967C980.715 139.475 984.022 134.375 988.496 130.452L991.219 128.098L987.718 124.764C984.994 122.018 982.855 118.88 981.299 115.153L977.992 107.111Z" fill="white"/>
<path d="M249.944 477.826C253.704 477.826 256.752 474.752 256.752 470.961C256.752 467.169 253.704 464.096 249.944 464.096C246.184 464.096 243.136 467.169 243.136 470.961C243.136 474.752 246.184 477.826 249.944 477.826Z" fill="white"/>
<path d="M1092.17 187.531C1095.93 187.531 1098.98 184.457 1098.98 180.665C1098.98 176.874 1095.93 173.8 1092.17 173.8C1088.41 173.8 1085.36 176.874 1085.36 180.665C1085.36 184.457 1088.41 187.531 1092.17 187.531Z" fill="white"/>
<path d="M1798.24 540.592C1802 540.592 1805.05 537.519 1805.05 533.727C1805.05 529.936 1802 526.862 1798.24 526.862C1794.48 526.862 1791.43 529.936 1791.43 533.727C1791.43 537.519 1794.48 540.592 1798.24 540.592Z" fill="white"/>
<path d="M1595.95 236.567C1599.71 236.567 1602.76 233.493 1602.76 229.702C1602.76 225.91 1599.71 222.837 1595.95 222.837C1592.19 222.837 1589.14 225.91 1589.14 229.702C1589.14 233.493 1592.19 236.567 1595.95 236.567Z" fill="white"/>
<path d="M308.297 556.284C309.908 556.284 311.215 554.967 311.215 553.342C311.215 551.717 309.908 550.4 308.297 550.4C306.686 550.4 305.379 551.717 305.379 553.342C305.379 554.967 306.686 556.284 308.297 556.284Z" fill="white"/>
<path d="M794.57 203.222C796.181 203.222 797.488 201.905 797.488 200.28C797.488 198.655 796.181 197.338 794.57 197.338C792.959 197.338 791.652 198.655 791.652 200.28C791.652 201.905 792.959 203.222 794.57 203.222Z" fill="white"/>
<path d="M926.836 495.479C928.448 495.479 929.754 494.162 929.754 492.537C929.754 490.912 928.448 489.595 926.836 489.595C925.225 489.595 923.919 490.912 923.919 492.537C923.919 494.162 925.225 495.479 926.836 495.479Z" fill="white"/>
<path d="M1247.78 109.072C1249.39 109.072 1250.69 107.755 1250.69 106.13C1250.69 104.505 1249.39 103.188 1247.78 103.188C1246.16 103.188 1244.86 104.505 1244.86 106.13C1244.86 107.755 1246.16 109.072 1247.78 109.072Z" fill="white"/>
<path d="M1387.82 560.207C1389.43 560.207 1390.74 558.89 1390.74 557.265C1390.74 555.64 1389.43 554.323 1387.82 554.323C1386.21 554.323 1384.91 555.64 1384.91 557.265C1384.91 558.89 1386.21 560.207 1387.82 560.207Z" fill="white"/>
<path d="M1699.04 448.404C1700.65 448.404 1701.96 447.087 1701.96 445.462C1701.96 443.837 1700.65 442.52 1699.04 442.52C1697.43 442.52 1696.12 443.837 1696.12 445.462C1696.12 447.087 1697.43 448.404 1699.04 448.404Z" fill="white"/>
<path d="M670.084 607.282C671.695 607.282 673.002 605.965 673.002 604.34C673.002 602.715 671.695 601.398 670.084 601.398C668.473 601.398 667.166 602.715 667.166 604.34C667.166 605.965 668.473 607.282 670.084 607.282Z" fill="white"/>
<path d="M575.747 542.554C580.044 542.554 583.528 539.041 583.528 534.708C583.528 530.375 580.044 526.862 575.747 526.862C571.45 526.862 567.967 530.375 567.967 534.708C567.967 539.041 571.45 542.554 575.747 542.554Z" fill="white"/>
<path d="M623.402 158.109C629.31 158.109 634.1 153.279 634.1 147.321C634.1 141.363 629.31 136.533 623.402 136.533C617.494 136.533 612.704 141.363 612.704 147.321C612.704 153.279 617.494 158.109 623.402 158.109Z" fill="white"/>
<path d="M1000.75 554.323C1006.66 554.323 1011.45 549.493 1011.45 543.535C1011.45 537.577 1006.66 532.747 1000.75 532.747C994.841 532.747 990.052 537.577 990.052 543.535C990.052 549.493 994.841 554.323 1000.75 554.323Z" fill="white"/>
<path d="M1553.16 589.629C1559.06 589.629 1563.85 584.799 1563.85 578.841C1563.85 572.883 1559.06 568.053 1553.16 568.053C1547.25 568.053 1542.46 572.883 1542.46 578.841C1542.46 584.799 1547.25 589.629 1553.16 589.629Z" fill="white"/>
<path d="M1494.8 173.8C1500.71 173.8 1505.5 168.97 1505.5 163.012C1505.5 157.054 1500.71 152.224 1494.8 152.224C1488.89 152.224 1484.1 157.054 1484.1 163.012C1484.1 168.97 1488.89 173.8 1494.8 173.8Z" fill="white"/>
<defs>
<linearGradient id="paint0_linear_11_228" x1="-0.899024" y1="423.634" x2="521.71" y2="784.185" gradientUnits="userSpaceOnUse">
<stop stop-color="#FBB03B"/>
<stop offset="0.4788" stop-color="#ED1C24"/>
<stop offset="1" stop-color="#FF0000"/>
</linearGradient>
</defs>
</svg>
