<svg width="800" height="1000" viewBox="0 0 800 1000" fill="none" xmlns="http://www.w3.org/2000/svg">
<path d="M800 446.19H798.439V36.7635C771.902 13.9042 737.405 0 699.707 0C617.054 0 549.854 66.4572 547.98 149.175C543.454 148.704 538.927 148.468 534.244 148.468C470.946 148.468 418.341 194.58 407.805 255.224C396.41 251.218 384.234 249.018 371.512 249.018C325.073 249.018 285.268 278.005 269.19 319.01C265.132 318.46 260.995 318.146 256.78 318.146C217.912 318.146 184.898 343.441 173.19 378.555C167.571 376.591 161.561 375.491 155.317 375.491C127.532 375.491 104.741 396.622 101.776 423.802C97.7171 421.524 93.1122 420.267 88.1951 420.267C73.4439 420.267 61.4244 431.657 60.1756 446.19H0V956.559C29.4244 983.661 67.7464 1000 109.581 1000C201.288 1000 275.902 921.367 278.01 823.488C283.005 824.038 288.078 824.352 293.229 824.352C363.473 824.352 421.854 769.835 433.561 698.115C446.205 702.828 459.707 705.42 473.834 705.42C525.424 705.42 569.522 671.092 587.473 622.624C592 623.331 596.527 623.645 601.21 623.645C644.371 623.645 680.976 593.716 694.01 552.16C700.254 554.517 706.888 555.774 713.834 555.774C744.663 555.774 770.029 530.793 773.229 498.665C777.678 501.335 782.829 502.828 788.293 502.828C792.429 502.828 796.332 501.964 800 500.393V446.19Z" fill="#280A54"/>
<path d="M297.366 493.323C318.487 493.323 335.61 476.09 335.61 454.831C335.61 433.573 318.487 416.339 297.366 416.339C276.244 416.339 259.122 433.573 259.122 454.831C259.122 476.09 276.244 493.323 297.366 493.323Z" fill="url(#paint0_linear_22_49)"/>
<path d="M661.073 378.633C677.884 378.633 691.512 364.917 691.512 347.997C691.512 331.077 677.884 317.361 661.073 317.361C644.262 317.361 630.634 331.077 630.634 347.997C630.634 364.917 644.262 378.633 661.073 378.633Z" fill="url(#paint1_linear_22_49)"/>
<path d="M186.146 517.675C187.655 517.675 188.878 516.444 188.878 514.925C188.878 513.407 187.655 512.176 186.146 512.176C184.638 512.176 183.415 513.407 183.415 514.925C183.415 516.444 184.638 517.675 186.146 517.675Z" fill="white"/>
<path d="M589.659 248.233C591.167 248.233 592.39 247.002 592.39 245.483C592.39 243.965 591.167 242.734 589.659 242.734C588.15 242.734 586.927 243.965 586.927 245.483C586.927 247.002 588.15 248.233 589.659 248.233Z" fill="white"/>
<path d="M72.9756 808.327C74.4843 808.327 75.7073 807.096 75.7073 805.577C75.7073 804.059 74.4843 802.828 72.9756 802.828C71.4669 802.828 70.2439 804.059 70.2439 805.577C70.2439 807.096 71.4669 808.327 72.9756 808.327Z" fill="white"/>
<path d="M332.098 735.271C333.606 735.271 334.829 734.04 334.829 732.522C334.829 731.003 333.606 729.772 332.098 729.772C330.589 729.772 329.366 731.003 329.366 732.522C329.366 734.04 330.589 735.271 332.098 735.271Z" fill="white"/>
<path d="M771.512 173.606C773.021 173.606 774.244 172.375 774.244 170.856C774.244 169.338 773.021 168.107 771.512 168.107C770.004 168.107 768.781 169.338 768.781 170.856C768.781 172.375 770.004 173.606 771.512 173.606Z" fill="white"/>
<path d="M445.268 443.048C446.777 443.048 448 441.817 448 440.299C448 438.78 446.777 437.549 445.268 437.549C443.76 437.549 442.537 438.78 442.537 440.299C442.537 441.817 443.76 443.048 445.268 443.048Z" fill="white"/>
<path d="M495.219 547.526C496.297 547.526 497.171 546.646 497.171 545.562C497.171 544.477 496.297 543.598 495.219 543.598C494.142 543.598 493.268 544.477 493.268 545.562C493.268 546.646 494.142 547.526 495.219 547.526Z" fill="white"/>
<path d="M159.61 418.696C160.256 418.696 160.78 418.168 160.78 417.518C160.78 416.867 160.256 416.339 159.61 416.339C158.963 416.339 158.439 416.867 158.439 417.518C158.439 418.168 158.963 418.696 159.61 418.696Z" fill="white"/>
<path d="M367.219 637.078C367.866 637.078 368.39 636.55 368.39 635.899C368.39 635.249 367.866 634.721 367.219 634.721C366.573 634.721 366.049 635.249 366.049 635.899C366.049 636.55 366.573 637.078 367.219 637.078Z" fill="white"/>
<path d="M759.024 405.342C759.671 405.342 760.195 404.814 760.195 404.163C760.195 403.513 759.671 402.985 759.024 402.985C758.378 402.985 757.854 403.513 757.854 404.163C757.854 404.814 758.378 405.342 759.024 405.342Z" fill="white"/>
<path d="M460.878 317.361C461.525 317.361 462.049 316.833 462.049 316.182C462.049 315.531 461.525 315.004 460.878 315.004C460.231 315.004 459.707 315.531 459.707 316.182C459.707 316.833 460.231 317.361 460.878 317.361Z" fill="white"/>
<path d="M38.6342 567.164C39.2807 567.164 39.8049 566.637 39.8049 565.986C39.8049 565.335 39.2807 564.808 38.6342 564.808C37.9876 564.808 37.4634 565.335 37.4634 565.986C37.4634 566.637 37.9876 567.164 38.6342 567.164Z" fill="white"/>
<path d="M263.805 371.563C265.529 371.563 266.927 370.156 266.927 368.421C266.927 366.686 265.529 365.279 263.805 365.279C262.081 365.279 260.683 366.686 260.683 368.421C260.683 370.156 262.081 371.563 263.805 371.563Z" fill="white"/>
<path d="M169.132 870.385L167.727 874.313C166.556 877.455 164.761 880.361 162.419 882.718L161.015 884.132C164.605 887.038 167.415 890.888 169.132 895.287L169.366 895.837L169.756 894.58C170.927 891.045 173.034 887.824 175.766 885.31L177.483 883.739L175.298 881.618C173.502 879.89 172.176 877.848 171.239 875.491L169.132 870.385Z" fill="white"/>
<path d="M146.341 695.208C148.712 695.208 150.634 693.274 150.634 690.888C150.634 688.501 148.712 686.567 146.341 686.567C143.971 686.567 142.049 688.501 142.049 690.888C142.049 693.274 143.971 695.208 146.341 695.208Z" fill="white"/>
<path d="M615.024 483.896C616.749 483.896 618.146 482.49 618.146 480.754C618.146 479.019 616.749 477.612 615.024 477.612C613.3 477.612 611.902 479.019 611.902 480.754C611.902 482.49 613.3 483.896 615.024 483.896Z" fill="white"/>
<defs>
<linearGradient id="paint0_linear_22_49" x1="259.122" y1="454.831" x2="335.61" y2="454.831" gradientUnits="userSpaceOnUse">
<stop stop-color="#FBB03B"/>
<stop offset="1" stop-color="#ED1E79"/>
</linearGradient>
<linearGradient id="paint1_linear_22_49" x1="630.634" y1="347.997" x2="691.512" y2="347.997" gradientUnits="userSpaceOnUse">
<stop stop-color="#FBB03B"/>
<stop offset="0.4788" stop-color="#D4145A"/>
<stop offset="1" stop-color="#ED1E79"/>
</linearGradient>
</defs>
</svg>
