<svg width="1025" height="1273" viewBox="0 0 1025 1273" fill="none" xmlns="http://www.w3.org/2000/svg">
<path d="M1025 568H1023V46.8C989 17.7 944.8 0 896.5 0C790.6 0 704.5 84.6 702.1 189.9C696.3 189.3 690.5 189 684.5 189C603.4 189 536 247.7 522.5 324.9C507.9 319.8 492.3 317 476 317C416.5 317 365.5 353.9 344.9 406.1C339.7 405.4 334.4 405 329 405C279.2 405 236.9 437.2 221.9 481.9C214.7 479.4 207 478 199 478C163.4 478 134.2 504.9 130.4 539.5C125.2 536.6 119.3 535 113 535C94.1 535 78.7 549.5 77.1 568H0V1217.7C37.7 1252.2 86.8 1273 140.4 1273C257.9 1273 353.5 1172.9 356.2 1048.3C362.6 1049 369.1 1049.4 375.7 1049.4C465.7 1049.4 540.5 980 555.5 888.7C571.7 894.7 589 898 607.1 898C673.2 898 729.7 854.3 752.7 792.6C758.5 793.5 764.3 793.9 770.3 793.9C825.6 793.9 872.5 755.8 889.2 702.9C897.2 705.9 905.7 707.5 914.6 707.5C954.1 707.5 986.6 675.7 990.7 634.8C996.4 638.2 1003 640.1 1010 640.1C1015.3 640.1 1020.3 639 1025 637V568Z" fill="#280A54"/>
<path d="M381 628C408.062 628 430 606.062 430 579C430 551.938 408.062 530 381 530C353.938 530 332 551.938 332 579C332 606.062 353.938 628 381 628Z" fill="url(#paint0_linear_20_2)"/>
<path d="M847 482C868.539 482 886 464.539 886 443C886 421.461 868.539 404 847 404C825.461 404 808 421.461 808 443C808 464.539 825.461 482 847 482Z" fill="url(#paint1_linear_20_2)"/>
<path d="M238.5 659C240.433 659 242 657.433 242 655.5C242 653.567 240.433 652 238.5 652C236.567 652 235 653.567 235 655.5C235 657.433 236.567 659 238.5 659Z" fill="white"/>
<path d="M755.5 316C757.433 316 759 314.433 759 312.5C759 310.567 757.433 309 755.5 309C753.567 309 752 310.567 752 312.5C752 314.433 753.567 316 755.5 316Z" fill="white"/>
<path d="M93.5 1029C95.433 1029 97 1027.43 97 1025.5C97 1023.57 95.433 1022 93.5 1022C91.567 1022 90 1023.57 90 1025.5C90 1027.43 91.567 1029 93.5 1029Z" fill="white"/>
<path d="M425.5 936C427.433 936 429 934.433 429 932.5C429 930.567 427.433 929 425.5 929C423.567 929 422 930.567 422 932.5C422 934.433 423.567 936 425.5 936Z" fill="white"/>
<path d="M988.5 221C990.433 221 992 219.433 992 217.5C992 215.567 990.433 214 988.5 214C986.567 214 985 215.567 985 217.5C985 219.433 986.567 221 988.5 221Z" fill="white"/>
<path d="M570.5 564C572.433 564 574 562.433 574 560.5C574 558.567 572.433 557 570.5 557C568.567 557 567 558.567 567 560.5C567 562.433 568.567 564 570.5 564Z" fill="white"/>
<path d="M634.5 697C635.881 697 637 695.881 637 694.5C637 693.119 635.881 692 634.5 692C633.119 692 632 693.119 632 694.5C632 695.881 633.119 697 634.5 697Z" fill="white"/>
<path d="M204.5 533C205.328 533 206 532.328 206 531.5C206 530.672 205.328 530 204.5 530C203.672 530 203 530.672 203 531.5C203 532.328 203.672 533 204.5 533Z" fill="white"/>
<path d="M470.5 811C471.328 811 472 810.328 472 809.5C472 808.672 471.328 808 470.5 808C469.672 808 469 808.672 469 809.5C469 810.328 469.672 811 470.5 811Z" fill="white"/>
<path d="M972.5 516C973.328 516 974 515.328 974 514.5C974 513.672 973.328 513 972.5 513C971.672 513 971 513.672 971 514.5C971 515.328 971.672 516 972.5 516Z" fill="white"/>
<path d="M590.5 404C591.328 404 592 403.328 592 402.5C592 401.672 591.328 401 590.5 401C589.672 401 589 401.672 589 402.5C589 403.328 589.672 404 590.5 404Z" fill="white"/>
<path d="M49.5 722C50.3284 722 51 721.328 51 720.5C51 719.672 50.3284 719 49.5 719C48.6716 719 48 719.672 48 720.5C48 721.328 48.6716 722 49.5 722Z" fill="white"/>
<path d="M338 473C340.209 473 342 471.209 342 469C342 466.791 340.209 465 338 465C335.791 465 334 466.791 334 469C334 471.209 335.791 473 338 473Z" fill="white"/>
<path d="M216.7 1108L214.9 1113C213.4 1117 211.1 1120.7 208.1 1123.7L206.3 1125.5C210.9 1129.2 214.5 1134.1 216.7 1139.7L217 1140.4L217.5 1138.8C219 1134.3 221.7 1130.2 225.2 1127L227.4 1125L224.6 1122.3C222.3 1120.1 220.6 1117.5 219.4 1114.5L216.7 1108Z" fill="white"/>
<path d="M187.5 885C190.538 885 193 882.538 193 879.5C193 876.462 190.538 874 187.5 874C184.462 874 182 876.462 182 879.5C182 882.538 184.462 885 187.5 885Z" fill="white"/>
<path d="M788 616C790.209 616 792 614.209 792 612C792 609.791 790.209 608 788 608C785.791 608 784 609.791 784 612C784 614.209 785.791 616 788 616Z" fill="white"/>
<defs>
<linearGradient id="paint0_linear_20_2" x1="332" y1="579" x2="430" y2="579" gradientUnits="userSpaceOnUse">
<stop stop-color="#FBB03B"/>
<stop offset="1" stop-color="#ED1E79"/>
</linearGradient>
<linearGradient id="paint1_linear_20_2" x1="808" y1="443" x2="886" y2="443" gradientUnits="userSpaceOnUse">
<stop stop-color="#FBB03B"/>
<stop offset="0.4788" stop-color="#D4145A"/>
<stop offset="1" stop-color="#ED1E79"/>
</linearGradient>
</defs>
</svg>
